<svg width="264" height="61" viewBox="0 0 264 61" fill="none" xmlns="http://www.w3.org/2000/svg">
<g clip-path="url(#clip0_876_39111)">
<rect width="229" height="35" transform="translate(17.5 13)" fill="url(#paint0_linear_876_39111)"/>
<path d="M60.0469 23.9219H56.7812V28.2812C57.4688 28.9167 57.8854 29.3281 58.0312 29.5156C58.2917 29.849 58.5573 30.3646 58.8281 31.0625H56.75C56.75 29.9271 56.4271 29.0417 55.7812 28.4062C55.1458 27.7708 54.2604 27.4531 53.125 27.4531C51.9375 27.4531 50.8281 27.7812 49.7969 28.4375C48.8073 29.0625 48.0104 29.9062 47.4062 30.9688C46.8333 31.9792 46.5469 32.9583 46.5469 33.9062C46.5469 35.0208 46.9479 35.8698 47.75 36.4531C48.4583 36.974 49.3906 37.2344 50.5469 37.2344C52.474 37.2344 53.8177 36.7031 54.5781 35.6406H57.9062C57.625 36.7656 56.5885 37.7135 54.7969 38.4844C53.9948 38.8281 53.25 39 52.5625 39C51.2188 39 49.8646 38.6198 48.5 37.8594C47.1979 37.1406 46.125 36.2188 45.2812 35.0938C44.4375 33.9583 44.0156 32.8385 44.0156 31.7344C44.0156 30.901 44.3854 29.9583 45.125 28.9062C46.6771 26.6979 48.5677 25.5938 50.7969 25.5938C52.2656 25.5938 53.4271 25.901 54.2812 26.5156V23.9219H43.25V22.0469H60.0469V23.9219ZM76.4844 23.9219H72.9688V28.2188C72.9688 28.3125 73.3854 28.776 74.2188 29.6094C74.8542 30.3802 75.1719 31.4844 75.1719 32.9219C75.1719 35.3073 74.1146 37.0729 72 38.2188C71 38.7604 69.9115 39.0312 68.7344 39.0312C67.026 39.0312 65.2656 38.276 63.4531 36.7656C61.5573 35.1823 60.6094 33.4635 60.6094 31.6094C60.6094 30.7552 60.9167 29.8698 61.5312 28.9531C62.0833 28.1302 62.75 27.4479 63.5312 26.9062C64.4688 26.2604 65.599 25.9375 66.9219 25.9375C67.651 25.9375 68.7292 26.1302 70.1562 26.5156C70.2188 26.5156 70.25 26.474 70.25 26.3906V23.9219H59.5312V22.0469H76.4844V23.9219ZM72.875 30.8438C72.875 29.375 72.2292 28.3906 70.9375 27.8906C70.4583 27.7031 70.0469 27.6094 69.7031 27.6094C68.4115 27.6094 67.0208 28.1875 65.5312 29.3438C63.7917 30.6979 62.9219 32.4219 62.9219 34.5156C62.9219 35.4948 63.4844 36.2969 64.6094 36.9219C65.1198 37.2031 65.6354 37.3438 66.1562 37.3438C67.4479 37.3438 68.8646 36.7188 70.4062 35.4688C72.0521 34.1354 72.875 32.5938 72.875 30.8438ZM100.031 23.9219H94.875L94.9062 26.1094C96.3229 26.6302 97.3438 27.3125 97.9688 28.1562C98.6146 29.0312 98.9375 30.2135 98.9375 31.7031C98.9375 33.849 98.0781 35.6927 96.3594 37.2344C96.0365 37.526 95.5417 37.9062 94.875 38.375C94.0521 38.9583 93.5312 39.25 93.3125 39.25C93.0938 39.25 92.0885 38.3333 90.2969 36.5C91.401 36.4375 92.5521 36.0833 93.75 35.4375C94.8854 34.8333 95.849 34.0938 96.6406 33.2188C97.4948 32.2812 97.9219 31.2865 97.9219 30.2344C97.9219 29.1927 97.3438 28.4688 96.1875 28.0625C95.625 27.8646 95.0677 27.776 94.5156 27.7969C91.1406 27.9323 89.0729 29.8958 88.3125 33.6875L85.1094 32.375C85.1094 31.5 85.4479 30.5208 86.125 29.4375C86.375 29.0417 86.5052 28.8177 86.5156 28.7656C86.5156 28.276 85.8125 28.0312 84.4062 28.0312C82.6042 28.0312 81.2031 28.8229 80.2031 30.4062C79.7656 31.1042 79.5469 31.8021 79.5469 32.5C79.5469 33.9583 80.2188 35.3385 81.5625 36.6406L84.5312 39.5156C82.7188 38.8906 81.0365 37.9844 79.4844 36.7969C77.4115 35.2135 76.375 33.5156 76.375 31.7031C76.375 29.4115 77.5312 27.7031 79.8438 26.5781C80.8542 26.0885 81.8958 25.8438 82.9688 25.8438C84.3438 25.8438 85.7188 26.2552 87.0938 27.0781C87.6146 27.3906 87.9167 27.5573 88 27.5781C88.7917 27.2344 89.6615 26.8646 90.6094 26.4688C91.1094 26.2604 91.6146 26.1198 92.125 26.0469L92.1562 23.9219H75.9062V22.0469H100.031V23.9219ZM117.578 23.9219H99.6562V22.0469H117.578V23.9219ZM116.328 32.5625C116.328 33.7083 115.984 34.7917 115.297 35.8125C114.661 36.7604 113.823 37.5365 112.781 38.1406C111.74 38.7344 110.776 39.0312 109.891 39.0312C109.026 39.0312 107.948 38.5469 106.656 37.5781C106.031 37.1094 105.115 36.3021 103.906 35.1562V48.4062L101.406 47.0938V26.4219H103.844V30.2344L104.797 29.2344C106.995 26.9323 108.776 25.7812 110.141 25.7812C111.62 25.7812 113.031 26.5469 114.375 28.0781C115.677 29.5677 116.328 31.0625 116.328 32.5625ZM114.781 30.75C114.781 29.9583 114.37 29.1979 113.547 28.4688C113.141 28.1042 112.625 27.9219 112 27.9219C110.771 27.9219 109.245 28.6667 107.422 30.1562C105.547 31.6875 104.609 33.0469 104.609 34.2344C104.609 34.9323 105.26 35.5469 106.562 36.0781C107.146 36.3177 107.714 36.4375 108.266 36.4375C110.078 36.4375 111.651 35.7396 112.984 34.3438C114.182 33.0938 114.781 31.8958 114.781 30.75ZM133.734 23.9219H129.469V27C129.958 27.1146 130.312 27.2552 130.531 27.4219V29.2656C129.292 28.8385 128 28.625 126.656 28.625C125.688 28.625 124.75 28.7865 123.844 29.1094C122.635 29.5365 122.026 30.1458 122.016 30.9375C121.995 31.7708 123.177 32.1875 125.562 32.1875C125.615 32.1875 125.953 32.1719 126.578 32.1406L127.516 32.0938V33.5312C126.099 33.5729 125.214 33.6094 124.859 33.6406C122.37 33.8594 121.125 34.5781 121.125 35.7969C121.125 36.474 121.557 37.0052 122.422 37.3906C123.099 37.6927 123.828 37.8438 124.609 37.8438C127.995 37.8438 130.734 36.3438 132.828 33.3438V37.2969C131.036 38.4323 128.917 39 126.469 39C123.792 39 121.479 38.3802 119.531 37.1406C118.583 36.5365 118.109 35.8438 118.109 35.0625C118.109 34.3021 118.443 33.6406 119.109 33.0781C119.516 32.7344 120.188 32.3385 121.125 31.8906L120.094 31.2969C119.479 30.9427 119.172 30.4688 119.172 29.875C119.172 28.5833 120.146 27.6562 122.094 27.0938C123.573 26.6667 125.234 26.4531 127.078 26.4531V23.9219H117.062V22.0469H133.734V23.9219ZM147.359 23.9219H139.453V36.5C139.453 36.8542 139.568 37.1979 139.797 37.5312C140.036 37.8958 140.328 38.0781 140.672 38.0781C142.224 38.0781 143 36.474 143 33.2656L146.141 35.0625C144.943 37.7188 143.089 39.0417 140.578 39.0312C139.12 39.0208 137.984 38.3542 137.172 37.0312C136.818 36.4583 136.641 35.8854 136.641 35.3125V23.9219H133.375V22.0469H136.641V16.7969L139.453 18.75V22.0469H147.359V23.9219ZM152.438 20.4062C152.396 20.4479 152.276 20.4688 152.078 20.4688C151.911 20.4688 151.766 20.4479 151.641 20.4062L150.625 18.3281C150.208 17.6719 149.641 17.2292 148.922 17C148.214 16.7604 147.776 16.5 147.609 16.2188C147.453 15.7396 147.151 15.0052 146.703 14.0156V13.6562H147.312C148.115 13.9062 148.766 14.1406 149.266 14.3594C150.089 14.724 150.641 15.1458 150.922 15.625C151.078 15.8854 151.318 16.5521 151.641 17.625C151.943 18.6354 152.198 19.3385 152.406 19.7344C152.427 19.9219 152.438 20.1458 152.438 20.4062ZM153.359 23.9219H147V22.0469H153.359V23.9219ZM151.578 39.3594L148.953 37.9062V25.8438H151.578V39.3594ZM167.078 23.9219H159.172V36.5C159.172 36.8542 159.286 37.1979 159.516 37.5312C159.755 37.8958 160.047 38.0781 160.391 38.0781C161.943 38.0781 162.719 36.474 162.719 33.2656L165.859 35.0625C164.661 37.7188 162.807 39.0417 160.297 39.0312C158.839 39.0208 157.703 38.3542 156.891 37.0312C156.536 36.4583 156.359 35.8854 156.359 35.3125V23.9219H153.094V22.0469H156.359V16.7969L159.172 18.75V22.0469H167.078V23.9219ZM172.156 20.4062C172.115 20.4479 171.995 20.4688 171.797 20.4688C171.63 20.4688 171.484 20.4479 171.359 20.4062L170.344 18.3281C169.927 17.6719 169.359 17.2292 168.641 17C167.932 16.7604 167.495 16.5 167.328 16.2188C167.172 15.7396 166.87 15.0052 166.422 14.0156V13.6562H167.031C167.833 13.9062 168.484 14.1406 168.984 14.3594C169.807 14.724 170.359 15.1458 170.641 15.625C170.797 15.8854 171.036 16.5521 171.359 17.625C171.661 18.6354 171.917 19.3385 172.125 19.7344C172.146 19.9219 172.156 20.1458 172.156 20.4062ZM173.078 23.9219H166.719V22.0469H173.078V23.9219ZM171.297 39.3594L168.672 37.9062V25.8438H171.297V39.3594ZM189.641 23.9219H186.125V28.2188C186.125 28.3125 186.542 28.776 187.375 29.6094C188.01 30.3802 188.328 31.4844 188.328 32.9219C188.328 35.3073 187.271 37.0729 185.156 38.2188C184.156 38.7604 183.068 39.0312 181.891 39.0312C180.182 39.0312 178.422 38.276 176.609 36.7656C174.714 35.1823 173.766 33.4635 173.766 31.6094C173.766 30.7552 174.073 29.8698 174.688 28.9531C175.24 28.1302 175.906 27.4479 176.688 26.9062C177.625 26.2604 178.755 25.9375 180.078 25.9375C180.807 25.9375 181.885 26.1302 183.312 26.5156C183.375 26.5156 183.406 26.474 183.406 26.3906V23.9219H172.688V22.0469H189.641V23.9219ZM186.031 30.8438C186.031 29.375 185.385 28.3906 184.094 27.8906C183.615 27.7031 183.203 27.6094 182.859 27.6094C181.568 27.6094 180.177 28.1875 178.688 29.3438C176.948 30.6979 176.078 32.4219 176.078 34.5156C176.078 35.4948 176.641 36.2969 177.766 36.9219C178.276 37.2031 178.792 37.3438 179.312 37.3438C180.604 37.3438 182.021 36.7188 183.562 35.4688C185.208 34.1354 186.031 32.5938 186.031 30.8438ZM206.016 23.9219H189.219V22.0469H206.016V23.9219ZM202.656 30.7812C202.656 28.2812 201.474 27.0312 199.109 27.0312C197.359 27.0312 195.896 27.9479 194.719 29.7812C193.677 31.4062 193.156 33.1354 193.156 34.9688V39.5156L190.594 38.1719V26.4219H193.281V28.2812L194.672 27.2344C195.901 26.3073 197.198 25.8438 198.562 25.8438C200.417 25.8438 201.953 26.5625 203.172 28C204.318 29.3542 204.891 30.974 204.891 32.8594C204.891 35.224 203.891 37.4948 201.891 39.6719L198.875 37.7812C199.812 36.8542 200.609 36 201.266 35.2188C202.193 34.1146 202.656 32.6354 202.656 30.7812ZM221.656 23.9219H219.953V29.8438C219.339 29.4792 218.453 29.1667 217.297 28.9062C216.214 28.6562 215.276 28.5312 214.484 28.5312C212.578 28.5312 210.979 28.8698 209.688 29.5469C208.958 29.9323 208.594 30.4375 208.594 31.0625C208.594 31.8958 209.031 32.3125 209.906 32.3125C210.438 32.3125 211.13 32.1562 211.984 31.8438C212.536 31.6458 213.245 31.3958 214.109 31.0938C214.474 30.9688 215.12 30.9062 216.047 30.9062C217.849 30.9062 219.193 31.4635 220.078 32.5781C220.505 33.1094 220.719 33.7344 220.719 34.4531C220.719 36.1094 219.677 37.4115 217.594 38.3594C216.729 38.7552 215.906 38.9792 215.125 39.0312C215.875 39.7812 216.589 40.1562 217.266 40.1562C217.484 40.1562 217.719 40.125 217.969 40.0625L219.547 42.6406C219.224 42.9219 218.562 43.0625 217.562 43.0625C216.75 43.0625 216.062 42.7865 215.5 42.2344C215.198 41.9323 214.771 41.3021 214.219 40.3438C213.75 39.5208 213.359 39.1042 213.047 39.0938C211.12 39.0417 209.635 38.6927 208.594 38.0469C207.938 37.6406 207.609 37.0833 207.609 36.375C207.609 35.5 208.13 35.0625 209.172 35.0625C209.557 35.0625 210.359 35.3646 211.578 35.9688C212.807 36.5625 213.818 36.8594 214.609 36.8594C216.193 36.8594 217.677 36.4844 219.062 35.7344C219.74 35.3698 220.078 34.9219 220.078 34.3906C220.078 33.599 219.453 33.2031 218.203 33.2031C217.818 33.2031 216.573 33.4844 214.469 34.0469C213.229 34.3802 212.469 34.5469 212.188 34.5469C210.531 34.5469 209.167 33.7656 208.094 32.2031C207.573 31.4531 207.312 30.6458 207.312 29.7812C207.302 28.0208 208.505 26.8333 210.922 26.2188C211.911 25.9688 212.844 25.8438 213.719 25.8438C214.719 25.8438 216.135 26.0885 217.969 26.5781V23.9219H205.531V22.0469H221.656V23.9219Z" fill="#EFDFAA"/>
</g>
<path d="M11.5 22.7115V8H252.5V20.1154M11.5 40.8846V38.2885V53H252.5V40.0192" stroke="#533E09" stroke-width="4.5"/>
<path d="M260.128 29.2247L262.113 30.5L260.128 31.7753L259.994 31.8614L259.907 31.9944L241.343 60.25H24.6225L5.07175 31.9797L4.95904 31.8167L4.78053 31.7306L2.80309 30.7775L2.22734 30.5L4.78053 29.2694L4.95904 29.1833L5.07175 29.0203L24.6225 0.75H241.343L259.907 29.0056L259.994 29.1386L260.128 29.2247Z" stroke="#DBAE3D" stroke-width="1.5"/>
<defs>
<linearGradient id="paint0_linear_876_39111" x1="6.6185" y1="38.8889" x2="224.731" y2="-1.6062" gradientUnits="userSpaceOnUse">
<stop offset="0.00399963" stop-color="#1E0E03"/>
<stop offset="0.9999" stop-color="#755D21"/>
</linearGradient>
<clipPath id="clip0_876_39111">
<rect width="229" height="35" fill="white" transform="translate(17.5 13)"/>
</clipPath>
</defs>
</svg>
