<svg width="98" height="18" viewBox="0 0 98 18" fill="none" xmlns="http://www.w3.org/2000/svg">
<path fill-rule="evenodd" clip-rule="evenodd" d="M0.999878 16.8203L11.0776 11.1516H26.0367L19.187 15.5606L0.999878 16.8203ZM60.364 10.8716C62.9439 10.8935 65.7873 10.8674 68.7905 10.8398C72.884 10.8023 77.2746 10.762 81.7004 10.8366C81.6056 13.6558 80.5014 15.1464 79.4572 16.5561C79.1986 16.9052 78.9436 17.2494 78.7086 17.6076C83.8406 12.2003 88.4731 11.0436 97.3681 9.65566C88.2014 8.42045 83.6625 6.95332 78.1575 0.995117C78.4642 1.41409 78.7709 1.80732 79.0686 2.1889C80.5682 4.11107 81.837 5.73747 81.7004 8.86834H51.1875C51.7948 9.45206 52.426 10.1121 53.0819 10.8534H58.317C58.8045 10.8566 59.1504 10.86 59.5281 10.8638C59.7766 10.8663 60.0388 10.8689 60.364 10.8716ZM26.6666 8.86834L19.187 4.6168H0.999878L10.2116 8.86834H26.6666Z" fill="url(#paint0_linear_561_20084)"/>
<path d="M11.0776 11.1516H26.0367C30.7504 11.0427 35.0112 10.9645 39.0276 10.9126L50.4999 10.9951C49.9023 10.179 49.2481 9.46143 48.5728 8.86834H41.9406C43.116 6.30407 45.7389 6.59208 48.1799 8.53918C48.3115 8.64414 48.4426 8.75392 48.5728 8.86834C49.2481 9.46143 49.9023 10.179 50.4999 10.9951C56.3496 16.73 57.8696 14.7705 60.364 10.8716C60.0388 10.8689 59.7766 10.8663 59.5281 10.8638C59.1504 10.86 58.8045 10.8566 58.317 10.8534C57.0153 13.0564 56.0903 13.8433 53.0819 10.8534C52.426 10.1121 51.7948 9.45206 51.1875 8.86834C45.2969 3.20658 41.6465 4.72451 39.3425 8.86834H26.6666H10.2116H7.21973C6.22469 9.76002 6.51135 10.2599 7.21973 11.1516H11.0776Z" fill="url(#paint1_linear_561_20084)"/>
<path d="M11.0776 11.1516L0.999878 16.8203L19.187 15.5606L26.0367 11.1516M11.0776 11.1516H26.0367M11.0776 11.1516H7.21973C6.51135 10.2599 6.22469 9.76002 7.21973 8.86834H10.2116M26.0367 11.1516C30.7504 11.0427 35.0112 10.9645 39.0276 10.9126L50.4999 10.9951M26.6666 8.86834L19.187 4.6168H0.999878L10.2116 8.86834M26.6666 8.86834H10.2116M26.6666 8.86834H39.3425C41.6465 4.72451 45.2969 3.20658 51.1875 8.86834M51.0736 8.86834H51.1875M60.364 10.8716C57.8696 14.7705 56.3496 16.73 50.4999 10.9951M60.364 10.8716C62.9439 10.8935 65.7873 10.8674 68.7905 10.8398C72.884 10.8023 77.2746 10.762 81.7004 10.8366C81.6056 13.6558 80.5014 15.1464 79.4572 16.5561C79.1986 16.9052 78.9436 17.2494 78.7086 17.6076C83.8406 12.2003 88.4731 11.0436 97.3681 9.65566C88.2014 8.42045 83.6625 6.95332 78.1575 0.995117C78.4642 1.41409 78.7709 1.80732 79.0686 2.1889C80.5682 4.11107 81.837 5.73747 81.7004 8.86834H51.1875M60.364 10.8716C60.0388 10.8689 59.7766 10.8663 59.5281 10.8638C59.1504 10.86 58.8045 10.8566 58.317 10.8534M58.317 10.8534H53.0819M58.317 10.8534C57.0153 13.0564 56.0903 13.8433 53.0819 10.8534M50.4999 10.9951C49.9023 10.179 49.2481 9.46143 48.5728 8.86834M50.4999 10.9951C49.787 10.0216 48.9936 9.18821 48.1799 8.53918M53.0819 10.8534C52.426 10.1121 51.7948 9.45206 51.1875 8.86834M48.5728 8.86834H41.9406C43.116 6.30407 45.7389 6.59208 48.1799 8.53918M48.5728 8.86834C48.4426 8.75392 48.3115 8.64414 48.1799 8.53918" stroke="url(#paint2_linear_561_20084)" stroke-width="0.157464"/>
<defs>
<linearGradient id="paint0_linear_561_20084" x1="0.999878" y1="9.30137" x2="97.3681" y2="9.30137" gradientUnits="userSpaceOnUse">
<stop offset="0.224" stop-color="#533E09"/>
<stop offset="1" stop-color="#DBAE3D"/>
</linearGradient>
<linearGradient id="paint1_linear_561_20084" x1="0.999878" y1="9.30137" x2="97.3681" y2="9.30137" gradientUnits="userSpaceOnUse">
<stop offset="0.224" stop-color="#533E09"/>
<stop offset="1" stop-color="#DBAE3D"/>
</linearGradient>
<linearGradient id="paint2_linear_561_20084" x1="95.0062" y1="9.34075" x2="6.66859" y2="10.1281" gradientUnits="userSpaceOnUse">
<stop stop-color="#DBAE3D"/>
<stop offset="1" stop-color="#B98A15"/>
</linearGradient>
</defs>
</svg>
