<svg width="60" height="105" viewBox="0 0 60 105" fill="none" xmlns="http://www.w3.org/2000/svg">
<path d="M57.0291 4.61908C56.1321 4.61908 55.9941 1.7391 56.8491 0.884096C57.6771 0.0560958 58.7691 2.08407 58.2381 3.46707C57.9951 4.10007 57.4521 4.61908 57.0291 4.61908Z" fill="#533E09"/>
<path d="M45.0951 13.6281C45.0951 13.0611 46.4661 10.8021 48.1431 8.60909C54.0741 0.842087 56.9001 4.23508 51.9711 13.2051C50.0781 16.6461 48.5331 19.9641 48.5331 20.5791C48.5331 21.1941 48.1131 21.9561 47.6031 22.2741C45.1701 23.7771 40.8021 32.1681 40.8021 35.3391C40.8021 37.1601 40.2351 39.4011 39.5391 40.3191C37.7871 42.6381 37.745 55.1991 39.485 57.4971C40.262 58.5231 40.7571 61.1601 40.7751 64.3461V64.3462C40.8021 69.5271 40.8021 69.5271 45.9561 74.6271C49.8591 78.4881 51.11 80.3211 51.11 82.1781C51.11 84.9951 54.3741 90.9711 57.5391 93.9411C61.4181 97.5861 58.601 103.415 54.317 100.607C53.222 99.8901 51.641 99.1611 50.801 98.9901C49.904 98.8071 48.329 96.5511 46.973 93.5121C45.704 90.6711 43.7961 86.9541 42.7341 85.2501C41.6721 83.5491 40.8021 81.1911 40.8021 80.0121C40.8021 78.8331 39.6411 76.4091 38.2251 74.6271C36.4191 72.3531 35.6481 70.4421 35.6481 68.2311C35.6481 66.4971 35.0811 64.3251 34.3851 63.4101C31.7211 59.8851 32.5941 38.5611 35.6481 32.6751C37.0641 29.9451 38.2251 27.2031 38.2251 26.5821C38.2251 24.5781 41.5461 17.8731 43.3461 16.2441C44.3091 15.3741 45.0951 14.1981 45.0951 13.6281Z" fill="#533E09"/>
<path d="M6.89007 14.9721C2.68107 10.8291 2.18305 9.28111 4.50805 7.56511C6.27205 6.26311 9.52707 8.85511 12.6711 14.0691C13.6671 15.7221 15.7671 18.5241 17.3361 20.2971C18.9021 22.0701 20.1861 24.0291 20.1861 24.6471C20.1861 25.2651 21.3441 26.8851 22.7631 28.2411C25.1511 30.5301 25.34 31.1541 25.34 36.8001C25.34 40.7991 25.7781 43.5171 26.6151 44.7141C28.1331 46.8801 27.9381 60.2361 26.3301 64.1601C25.7841 65.4891 25.34 66.9831 25.34 67.4811C25.34 69.3951 22.25 77.5341 18.719 84.9171C16.691 89.1621 15.032 93.4641 15.032 94.4811C15.032 96.6561 5.39911 104.261 2.64211 104.261C-1.14989 104.261 1.51411 94.7691 5.60311 93.7011C6.53611 93.4551 7.30105 92.6151 7.30105 91.8321C7.30105 89.7921 11.0841 81.8661 13.2201 79.4331C14.2161 78.2991 15.0351 76.5591 15.0381 75.5691C15.0411 74.5791 15.6201 72.6621 16.3251 71.3061C17.0301 69.9531 17.6211 67.0551 17.6391 64.8651C17.6571 62.6751 18.2211 59.9181 18.8961 58.7361C19.5711 57.5541 20.1261 55.0431 20.1261 53.1531C20.1261 51.2631 19.5711 48.7491 18.8961 47.5701C18.2211 46.3881 17.6571 43.6281 17.6391 41.4381C17.6211 39.2481 17.0301 36.3501 16.3251 34.9971C15.6201 33.6441 15.0411 31.3131 15.0381 29.8161C15.0291 25.9791 11.4531 19.4601 6.89007 14.9721Z" fill="#533E09"/>
</svg>
