<svg width="71" height="61" viewBox="0 0 71 61" fill="none" xmlns="http://www.w3.org/2000/svg">
<path d="M25.05 13.3994C23.214 7.99044 24.027 5.35044 28.38 2.59044C37.665 -3.29856 45.462 5.44044 40.398 16.0604C38.601 19.8254 39.201 21.0434 44.595 24.6344C46.725 26.0504 51.147 29.9174 54.42 33.2234C57.696 36.5324 61.1399 39.8654 62.0729 40.6364C69.4409 46.7054 72.141 54.5984 68.394 59.1164C65.079 63.1094 49.599 54.5384 49.599 48.7094C49.599 46.5734 49.113 45.8744 47.121 45.1214C45.759 44.6084 44.118 43.1084 43.47 41.7884C40.86 36.4634 31.56 31.4744 31.56 35.4014C31.56 37.5254 18.6659 50.8334 16.6079 50.8334C15.9689 50.8334 14.967 51.9914 14.379 53.4104C13.2 56.2544 4.54799 57.3554 2.53799 54.9134C-0.777012 50.8844 0.857996 43.7294 6.024 39.6674C7.311 38.6534 8.36697 37.2704 8.36697 36.5954C8.36697 35.3804 14.496 30.5324 20.232 27.2114C24.774 24.5804 26.838 18.6674 25.05 13.3994Z" fill="#533E09"/>
</svg>
