<svg width="59" height="81" viewBox="0 0 59 81" fill="none" xmlns="http://www.w3.org/2000/svg">
<path d="M24.0464 61.3867C22.9454 58.5187 23.5274 1.58473 24.6674 0.861734C26.2964 -0.173266 30.8114 0.0457336 32.4404 1.23973C33.7814 2.22073 33.8864 4.85174 33.6794 31.9477L33.4514 61.5847L30.6194 61.3597C29.0624 61.2367 27.0704 61.5187 26.1944 61.9897C24.9734 62.6437 24.4754 62.5027 24.0464 61.3867Z" fill="#533E09"/>
<path d="M2.61739 67.5127C0.964395 66.8767 0.0643954 62.6737 0.772395 58.8967C1.6844 54.0457 6.8294 57.0787 11.9774 65.4997C14.8574 70.2127 27.1694 73.2487 33.4514 70.7917C34.8674 70.2367 37.5104 69.5587 39.3194 69.2827C41.8964 68.8897 43.9544 67.4827 48.7694 62.8237C52.1564 59.5447 55.4084 56.8627 55.9994 56.8627C56.5904 56.8597 57.3644 56.8507 57.7184 56.8387C58.6994 56.8027 59.4674 66.5317 58.6184 68.2417C58.2074 69.0667 57.2924 69.7447 56.5844 69.7447C55.8734 69.7447 54.3404 70.3687 53.1764 71.1337C52.0094 71.8957 50.2844 72.3187 49.3424 72.0727C48.3974 71.8237 47.4014 71.9857 47.1284 72.4297C46.5074 73.4317 41.2184 75.7267 33.7844 78.2167L28.1054 80.1217L23.6594 78.3697C21.2144 77.4037 18.3584 76.6027 17.3144 76.5877C12.6344 76.5187 6.16339 73.4077 5.01439 70.6777C4.39639 69.2047 3.31639 67.7797 2.61739 67.5127Z" fill="#533E09"/>
</svg>

