<svg width="107" height="81" viewBox="0 0 107 81" fill="none" xmlns="http://www.w3.org/2000/svg">
<path d="M2.40329 74.4245C-0.101705 77.1965 -0.4077 77.9645 0.3933 79.4615C1.9743 82.4165 8.1513 79.9564 8.1513 76.3744C8.1513 74.7574 11.9553 72.5044 13.6113 73.1404C14.3883 73.4374 15.0213 74.5294 15.0213 75.5644C15.0213 79.2004 21.0063 81.3484 22.2303 78.1504C22.5183 77.4034 22.7523 61.7644 22.7523 43.3924C22.7523 11.7994 22.8393 9.94843 24.3393 9.14442C26.3013 8.09443 40.6713 8.60742 41.8323 9.77142C42.3543 10.2934 42.7293 23.4844 42.8073 44.2744C42.9513 81.1174 42.9243 80.9284 48.0873 80.1874C49.7763 79.9444 49.8153 79.2394 50.0343 45.4624C50.2203 16.8304 50.4663 10.8124 51.4863 9.96643C53.1693 8.57143 71.5053 8.05843 72.3663 9.38443C72.7173 9.92143 73.1973 25.8245 73.4342 44.7215L73.8633 79.0805L76.7793 79.3594C81.1623 79.7794 81.1353 80.0014 81.1503 42.4504C81.1653 2.34045 80.0763 6.45346 90.8313 5.87746C99.2703 5.42746 98.4843 1.74043 98.6403 42.5254C98.7693 76.3414 98.8023 76.9115 100.602 78.7115C103.404 81.5195 106.038 79.7524 106.185 74.9704C106.512 64.4194 106.017 3.37843 105.594 2.04643C105.123 0.561432 102.888 0.483444 61.3983 0.483444H17.6973L16.3593 2.39442C15.2163 4.02343 15.0153 8.39144 14.9793 32.2414C14.9343 63.1984 14.6613 64.9264 9.43528 67.3894C8.01928 68.0554 6.5223 69.1775 6.1083 69.8795C5.6943 70.5815 4.02629 72.6275 2.40329 74.4245Z" fill="#533E09"/>
</svg>
