<svg width="102" height="108" viewBox="0 0 102 108" fill="none" xmlns="http://www.w3.org/2000/svg">
<path d="M57.3341 78.4649C58.9533 82.7317 59.6307 85.0263 60.2706 88.9746C65.6418 87.179 68.4954 85.8015 73.0985 82.4833L70.7802 79.7014L62.5889 84.338C62.0985 83.2938 61.1245 81.2166 61.1979 81.2469C62.0239 81.5881 68.613 77.6673 70.7802 75.0648L77.8719 83.4519" stroke="url(#paint0_radial_876_39120)" stroke-width="0.927319"/>
<path d="M75.77 51.144C80.3136 50.7172 82.7058 50.6741 86.6821 51.1067C86.3788 45.4514 85.8094 42.3344 83.8342 37.0148L80.5361 38.5102L82.8285 47.6393C81.6915 47.8346 79.4302 48.2213 79.4789 48.1586C80.0274 47.4531 77.9991 40.0588 76.0663 37.2778L85.9087 32.6039" stroke="url(#paint1_radial_876_39120)" stroke-width="0.927319"/>
<path d="M54.0902 78.9253C54.4275 83.4765 54.7841 85.8423 55.8739 89.6907C50.2473 90.3352 47.0789 90.2937 41.5044 89.2337L42.4287 85.7323L51.8123 86.4696C51.8151 85.316 51.8192 83.0218 51.7655 83.0803C51.1613 83.7388 43.5323 82.9726 40.4678 81.5308L37.639 91.5494" stroke="url(#paint2_radial_876_39120)" stroke-width="0.927319"/>
<path d="M75.375 54.6749C79.8521 55.5595 82.204 55.5633 86.2037 55.5356C85.3293 61.1311 84.4472 64.1745 81.9435 69.2667L78.8137 67.445L82.0188 58.5949C80.9075 58.2856 78.6969 57.6718 78.739 57.7391C79.2132 58.4966 76.4466 65.6475 74.2421 68.2185L83.1484 73.6086" stroke="url(#paint3_radial_876_39120)" stroke-width="0.927319"/>
<path d="M56.9267 27.9928C57.8486 23.5233 58.5077 21.2233 60.0852 17.5478C54.5889 16.1824 51.4416 15.8145 45.7769 16.146L46.2414 19.7374L55.6417 20.2176C55.4956 21.3619 55.2035 23.6374 55.1578 23.5725C54.6437 22.8415 46.9795 22.6165 43.7546 23.6506L42.2428 13.3507" stroke="url(#paint4_radial_876_39120)" stroke-width="0.927319"/>
<path d="M9.57627 55.1273C9.57627 55.1273 18.8525 54.5984 19.4675 54.1997C22.3105 66.2569 19.2983 54.999 22.4049 65.8065L20.1085 66.7115C18.1632 63.2535 17.6187 61.2161 17.4014 57.4456C16.3937 58.007 13.7496 57.4456 13.7496 57.4456C12.6022 60.7525 16.9838 71.1649 18.5407 70.7372C21.9207 68.8116 23.8157 67.732 27.1957 65.8065" stroke="url(#paint5_radial_876_39120)" stroke-width="0.927319"/>
<path d="M31.4841 89.4382C31.4841 89.4382 36.0287 80.2902 36.6279 79.8682C26.5001 72.7348 35.8231 79.7271 26.9532 72.8151L25.2573 74.6085C27.7406 77.7029 29.4282 78.9677 32.8457 80.5751C31.9491 81.3009 31.4842 83.9636 31.4842 83.9636C27.988 83.7953 19.9599 75.8475 20.9373 74.5624C23.9842 72.144 25.6925 70.7881 28.7394 68.3698" stroke="url(#paint6_radial_876_39120)" stroke-width="0.927319"/>
<path d="M80.5101 25.2051C80.5101 25.2051 73.8724 31.7066 73.6716 32.4115C63.5977 25.2021 73.2731 31.6982 63.823 25.6034L64.9569 23.411C68.697 24.7352 70.4475 25.9113 73.0919 28.6077C73.4814 27.5219 75.842 26.205 75.842 26.205C74.5303 22.9599 64.3799 18.0013 63.4889 19.3478C62.2104 23.0217 61.3945 25.4886 60.1161 29.1625" stroke="url(#paint7_radial_876_39120)" stroke-width="0.927319"/>
<path d="M9.86822 47.4089C9.86822 47.4089 19.0189 49.0191 19.583 49.4871C23.8168 37.8452 19.5085 48.6734 23.8579 38.3035L21.6831 37.1361C19.3467 40.3428 18.5677 42.3026 17.9108 46.0217C16.9756 45.3463 14.2841 45.5946 14.2841 45.5946C13.5314 42.1763 19.1007 32.3478 20.5969 32.9547C23.7285 35.2624 25.4842 36.5562 28.6158 38.8639" stroke="url(#paint8_radial_876_39120)" stroke-width="0.927319"/>
<path d="M34.924 15.5619C34.924 15.5619 38.5424 24.7851 39.1096 25.2492C28.4928 31.632 38.2968 25.3318 28.9505 31.5846L27.3886 29.6734C30.0891 26.7666 31.8636 25.6271 35.3884 24.2709C34.5466 23.4821 34.2753 20.7928 34.2753 20.7928C30.7761 20.708 22.1946 28.0547 23.0766 29.4072C25.9407 32.0394 28.0415 33.3306 30.9056 35.9628" stroke="url(#paint9_radial_876_39120)" stroke-width="0.927319"/>
<path d="M72.3083 67.2238C68.2462 74.7754 60.5845 77.2597 56.8705 78.3928" stroke="url(#paint10_linear_876_39120)" stroke-width="0.927319"/>
<path d="M67.1249 33.6748C73.3054 38.4059 75.7782 46.4793 75.5769 51.5718" stroke="url(#paint11_linear_876_39120)" stroke-width="0.927319"/>
<path d="M71.6249 38.5498C68.4396 34.0705 62.3344 29.6593 59.7896 28.6691" stroke="url(#paint12_linear_876_39120)" stroke-width="0.927319"/>
<path d="M54.3977 78.9286C45.9522 80.7728 34.9291 77.7445 28.4327 68.0364" stroke="url(#paint13_radial_876_39120)" stroke-width="0.927319"/>
<path d="M75.4364 54.098C76.4959 64.0893 69.0789 75.6997 56.8528 78.3516" stroke="url(#paint14_radial_876_39120)" stroke-width="0.927319"/>
<path d="M57.3343 28.0806C50.875 26.4339 39.5654 26.8104 30.5966 36.2719" stroke="url(#paint15_radial_876_39120)" stroke-width="0.927319"/>
<path d="M28.587 38.4357C25.6065 43.658 21.3809 54.2892 27.3506 66.2553" stroke="url(#paint16_radial_876_39120)" stroke-width="0.927319"/>
<path d="M35.2331 15.2527C23.4318 19.5841 12.605 31.6582 9.88635 47.8634" stroke="url(#paint17_radial_876_39120)" stroke-width="0.927319"/>
<path d="M9.73177 54.6637C9.29134 67.227 18.005 80.8073 31.9874 89.4382" stroke="url(#paint18_radial_876_39120)" stroke-width="0.927319"/>
<path d="M37.2423 91.2929C50.175 97.1546 66.4714 92.6356 77.5807 83.1016" stroke="url(#paint19_radial_876_39120)" stroke-width="0.927319"/>
<path d="M82.7958 73.9229C91.8843 63.0136 91.8597 46.1022 85.6217 32.8584" stroke="url(#paint20_radial_876_39120)" stroke-width="0.927319"/>
<path d="M41.7242 13.2437C59.6968 9.7467 73.1299 17.7466 80.6716 25.6078" stroke="url(#paint21_radial_876_39120)" stroke-width="0.927319"/>
<g filter="url(#filter0_f_876_39120)">
<path d="M74.25 53.1749C74.25 66.6368 63.5048 77.5499 50.25 77.5499C36.9952 77.5499 26.25 66.6368 26.25 53.1749C26.25 39.7129 36.9952 28.7999 50.25 28.7999C63.5048 28.7999 74.25 39.7129 74.25 53.1749Z" fill="url(#paint22_radial_876_39120)"/>
</g>
<g clip-path="url(#clip0_876_39120)">
<path d="M50.1151 35.3765C49.8151 35.4578 49.6838 35.639 49.1651 36.6703C48.8713 37.2578 48.6213 37.7515 48.6088 37.764C48.5963 37.7765 48.0588 37.864 47.4213 37.964C46.1401 38.1515 46.0088 38.2015 45.8088 38.6078C45.5963 39.0453 45.6713 39.1953 46.6651 40.189L47.5463 41.0828L47.3401 42.2703C47.1401 43.4453 47.1401 43.4578 47.2526 43.689C47.3151 43.8203 47.4651 43.989 47.5838 44.0703C47.9213 44.3015 48.1588 44.239 49.3213 43.6265L50.3401 43.0828L51.3526 43.6203C52.5088 44.239 52.7463 44.3015 53.0838 44.0703C53.2026 43.989 53.3526 43.8203 53.4151 43.689C53.5276 43.4578 53.5276 43.4453 53.3276 42.2703L53.1213 41.0828L54.0026 40.189C54.9963 39.1953 55.0713 39.0453 54.8588 38.6078C54.6526 38.2015 54.5213 38.1453 53.2463 37.9578C52.6088 37.864 52.0713 37.7765 52.0588 37.764C52.0463 37.7515 51.7963 37.2578 51.5026 36.6703C51.1651 36.0015 50.9088 35.564 50.8151 35.5015C50.6463 35.389 50.2963 35.3265 50.1151 35.3765ZM50.8463 37.4515C51.2338 38.264 51.3588 38.464 51.5338 38.5703C51.6776 38.6578 52.0338 38.7328 52.7713 38.8328C53.3401 38.914 53.8151 38.989 53.8338 39.0015C53.8463 39.014 53.5026 39.3828 53.0651 39.8203C52.5713 40.314 52.2526 40.689 52.2151 40.8078C52.1776 40.939 52.2151 41.3015 52.3401 42.0515C52.4401 42.6328 52.5088 43.1203 52.4963 43.1328C52.4838 43.139 52.0401 42.9265 51.5088 42.6515C50.8651 42.314 50.4713 42.1453 50.3338 42.1453C50.1963 42.1453 49.8026 42.314 49.1588 42.6515C48.6338 42.9265 48.1838 43.1453 48.1713 43.1328C48.1588 43.1203 48.2276 42.6453 48.3213 42.0828C48.4338 41.4265 48.4776 40.9765 48.4526 40.839C48.4213 40.6765 48.2151 40.4328 47.6088 39.8265C47.1713 39.3828 46.8213 39.014 46.8338 39.0015C46.8526 38.989 47.3276 38.914 47.8963 38.8328C48.6338 38.7328 48.9901 38.6578 49.1338 38.5703C49.3088 38.464 49.4338 38.264 49.8213 37.4515C50.0901 36.9015 50.3151 36.4578 50.3338 36.4578C50.3526 36.4578 50.5776 36.9015 50.8463 37.4515Z" fill="#DAA92F"/>
<path d="M43.0212 35.8954C42.865 36.0516 42.8587 36.4016 43.0087 36.5391C43.1775 36.6954 43.7837 36.9579 43.9775 36.9579C44.2087 36.9579 44.3962 36.7579 44.3962 36.5016C44.3962 36.2454 44.29 36.1391 43.815 35.9266C43.3837 35.7391 43.19 35.7266 43.0212 35.8954Z" fill="#DAA92F"/>
<path d="M56.8959 35.9329C56.4396 36.1391 56.3334 36.2454 56.3334 36.5016C56.3334 36.7579 56.5209 36.9579 56.7584 36.9579C56.9459 36.9579 57.5521 36.6954 57.7209 36.5391C57.8709 36.4016 57.8646 36.0516 57.7084 35.8954C57.5459 35.7329 57.3146 35.7454 56.8959 35.9329Z" fill="#DAA92F"/>
<path d="M42.1459 39.4579C41.9896 39.6141 41.9834 39.9016 42.1396 40.0891C42.2459 40.2266 42.3084 40.2391 42.7896 40.2391C43.4146 40.2391 43.5834 40.1454 43.5834 39.7891C43.5834 39.4266 43.4209 39.3329 42.8021 39.3329C42.3521 39.3329 42.2521 39.3516 42.1459 39.4579Z" fill="#DAA92F"/>
<path d="M57.2836 39.4329C57.0961 39.5641 57.0898 39.9516 57.2773 40.1204C57.3836 40.2204 57.5086 40.2391 57.9398 40.2391C58.4211 40.2391 58.4836 40.2266 58.5898 40.0891C58.7461 39.9016 58.7398 39.6141 58.5836 39.4579C58.4773 39.3516 58.3773 39.3329 57.9398 39.3329C57.5711 39.3329 57.3836 39.3641 57.2836 39.4329Z" fill="#DAA92F"/>
<path d="M43.4526 42.7576C42.9714 42.9889 42.8964 43.0639 42.8964 43.3076C42.8964 43.5701 43.0839 43.7701 43.3276 43.7701C43.5339 43.7701 44.0901 43.5326 44.2714 43.3639C44.4589 43.1951 44.4339 42.8701 44.2339 42.7139C44.0214 42.5451 43.8839 42.5576 43.4526 42.7576Z" fill="#DAA92F"/>
<path d="M56.4962 42.7139C56.2962 42.8701 56.2712 43.1951 56.4587 43.3639C56.6399 43.5326 57.1962 43.7701 57.4024 43.7701C57.7399 43.7701 57.9399 43.3951 57.7712 43.0764C57.7024 42.9514 56.9587 42.5826 56.7712 42.5826C56.7087 42.5826 56.5899 42.6389 56.4962 42.7139Z" fill="#DAA92F"/>
<path d="M46.1711 45.7889C46.0086 45.9326 45.9336 46.0701 45.8899 46.2701C45.8149 46.6701 45.8211 49.5639 45.8961 49.8451C46.0024 50.2139 46.3961 50.3326 46.6461 50.0826C46.7649 49.9639 46.7711 49.8764 46.7711 48.2389V46.5201H50.3336H53.8961V54.4889V62.4576H50.3336H46.7711V56.9889V51.5264L46.6336 51.3951C46.4774 51.2514 46.2274 51.2326 46.0649 51.3576C45.8899 51.4889 45.8336 51.8014 45.8336 52.6264V53.3889L42.1524 53.4076C38.5399 53.4264 38.4649 53.4264 38.2961 53.5576C38.2024 53.6264 38.0649 53.7639 37.9961 53.8576C37.8649 54.0264 37.8649 54.1014 37.8461 58.2389L37.8274 62.4514L36.4899 62.4701L35.1586 62.4889L34.8836 62.6764C34.7274 62.7889 34.5586 62.9826 34.4774 63.1451C34.3399 63.4139 34.3336 63.4764 34.3336 65.2139C34.3336 66.8826 34.3399 67.0139 34.4524 67.1514L34.5711 67.3014H50.3336H66.0961L66.2149 67.1514C66.3274 67.0139 66.3336 66.8826 66.3336 65.2139C66.3336 63.4764 66.3274 63.4139 66.1961 63.1451C66.1086 62.9826 65.9399 62.7889 65.7836 62.6764L65.5086 62.4889L64.1711 62.4701L62.8336 62.4514L62.8211 56.4701C62.8024 50.8514 62.7961 50.4764 62.6899 50.2826C62.6274 50.1701 62.4899 50.0201 62.3774 49.9576C62.1836 49.8389 62.0399 49.8326 58.5086 49.8326H54.8336V48.1889C54.8274 46.2514 54.8024 46.0701 54.4961 45.7889L54.2711 45.5826H50.3336H46.3961L46.1711 45.7889ZM61.8961 56.6139V62.4576H60.7024C59.2774 62.4576 59.1461 62.4951 59.1461 62.9389C59.1461 63.0639 59.1961 63.1951 59.2711 63.2701C59.3899 63.3889 59.4774 63.3951 62.2961 63.3951C64.8524 63.3951 65.2086 63.4076 65.2961 63.4951C65.3836 63.5764 65.3961 63.8014 65.3961 64.9951V66.3951H50.3336H35.2711V64.9951C35.2711 63.8014 35.2836 63.5764 35.3711 63.4951C35.4586 63.4076 36.5649 63.3951 46.6211 63.3951C57.6899 63.3951 57.7711 63.3951 57.8961 63.2701C57.9711 63.1951 58.0211 63.0639 58.0211 62.9389C58.0211 62.4889 57.9086 62.4576 56.2461 62.4576H54.8336V56.6139V50.7701H58.3649H61.8961V56.6139ZM45.8336 58.3951V62.4576H42.3024H38.7711V58.4389C38.7711 56.2264 38.7899 54.3951 38.8149 54.3764C38.8336 54.3514 40.4274 54.3326 42.3461 54.3326H45.8336V58.3951Z" fill="#DAA92F"/>
</g>
<defs>
<filter id="filter0_f_876_39120" x="23.325" y="25.8749" width="53.85" height="54.6" filterUnits="userSpaceOnUse" color-interpolation-filters="sRGB">
<feFlood flood-opacity="0" result="BackgroundImageFix"/>
<feBlend mode="normal" in="SourceGraphic" in2="BackgroundImageFix" result="shape"/>
<feGaussianBlur stdDeviation="1.4625" result="effect1_foregroundBlur_876_39120"/>
</filter>
<radialGradient id="paint0_radial_876_39120" cx="0" cy="0" r="1" gradientUnits="userSpaceOnUse" gradientTransform="translate(67.4573 82.0197) scale(10.1232 6.95489)">
<stop stop-color="#DBAE3D"/>
<stop offset="1" stop-color="#755D21"/>
</radialGradient>
<radialGradient id="paint1_radial_876_39120" cx="0" cy="0" r="1" gradientUnits="userSpaceOnUse" gradientTransform="translate(81.8877 42.3298) rotate(-74.5846) scale(10.1232 6.95489)">
<stop stop-color="#DBAE3D"/>
<stop offset="1" stop-color="#755D21"/>
</radialGradient>
<radialGradient id="paint2_radial_876_39120" cx="0" cy="0" r="1" gradientUnits="userSpaceOnUse" gradientTransform="translate(46.4202 86.4278) rotate(154.981) scale(10.1232 6.95489)">
<stop stop-color="#DBAE3D"/>
<stop offset="1" stop-color="#755D21"/>
</radialGradient>
<radialGradient id="paint3_radial_876_39120" cx="0" cy="0" r="1" gradientUnits="userSpaceOnUse" gradientTransform="translate(80.5453 63.7819) rotate(80.3967) scale(10.1232 6.95489)">
<stop stop-color="#DBAE3D"/>
<stop offset="1" stop-color="#755D21"/>
</radialGradient>
<radialGradient id="paint4_radial_876_39120" cx="0" cy="0" r="1" gradientUnits="userSpaceOnUse" gradientTransform="translate(50.2894 19.563) rotate(-147.564) scale(10.1232 6.95489)">
<stop stop-color="#DBAE3D"/>
<stop offset="1" stop-color="#755D21"/>
</radialGradient>
<radialGradient id="paint5_radial_876_39120" cx="0" cy="0" r="1" gradientUnits="userSpaceOnUse" gradientTransform="translate(17.5975 61.5633) rotate(35.7217) scale(10.2698 7.07001)">
<stop stop-color="#DBAE3D"/>
<stop offset="1" stop-color="#755D21"/>
</radialGradient>
<radialGradient id="paint6_radial_876_39120" cx="0" cy="0" r="1" gradientUnits="userSpaceOnUse" gradientTransform="translate(29.1667 79.1367) rotate(-103.831) scale(10.5568 7.07001)">
<stop stop-color="#DBAE3D"/>
<stop offset="1" stop-color="#755D21"/>
</radialGradient>
<radialGradient id="paint7_radial_876_39120" cx="0" cy="0" r="1" gradientUnits="userSpaceOnUse" gradientTransform="translate(70.1668 25.6423) rotate(174.579) scale(10.3383 7.07001)">
<stop stop-color="#DBAE3D"/>
<stop offset="1" stop-color="#755D21"/>
</radialGradient>
<radialGradient id="paint8_radial_876_39120" cx="0" cy="0" r="1" gradientUnits="userSpaceOnUse" gradientTransform="translate(18.5872 41.9553) rotate(-29.0047) scale(10.2698 7.07001)">
<stop stop-color="#DBAE3D"/>
<stop offset="1" stop-color="#755D21"/>
</radialGradient>
<radialGradient id="paint9_radial_876_39120" cx="0" cy="0" r="1" gradientUnits="userSpaceOnUse" gradientTransform="translate(31.6441 25.3501) rotate(107.975) scale(10.3226 7.07001)">
<stop stop-color="#DBAE3D"/>
<stop offset="1" stop-color="#755D21"/>
</radialGradient>
<linearGradient id="paint10_linear_876_39120" x1="63.253" y1="78.9801" x2="63.5899" y2="68.6997" gradientUnits="userSpaceOnUse">
<stop stop-color="#DBAE3D"/>
<stop offset="1" stop-color="#755D21"/>
</linearGradient>
<linearGradient id="paint11_linear_876_39120" x1="77.8397" y1="45.575" x2="68.0186" y2="42.5175" gradientUnits="userSpaceOnUse">
<stop stop-color="#DBAE3D"/>
<stop offset="1" stop-color="#755D21"/>
</linearGradient>
<linearGradient id="paint12_linear_876_39120" x1="64.4009" y1="28.2686" x2="64.6231" y2="35.0485" gradientUnits="userSpaceOnUse">
<stop stop-color="#DBAE3D"/>
<stop offset="1" stop-color="#755D21"/>
</linearGradient>
<radialGradient id="paint13_radial_876_39120" cx="0" cy="0" r="1" gradientUnits="userSpaceOnUse" gradientTransform="translate(41.4152 73.4825) rotate(-17.3519) scale(10.7674 9.07014)">
<stop stop-color="#DBAE3D"/>
<stop offset="1" stop-color="#755D21"/>
</radialGradient>
<radialGradient id="paint14_radial_876_39120" cx="0" cy="0" r="1" gradientUnits="userSpaceOnUse" gradientTransform="translate(66.7353 65.1658) rotate(-91.9365) scale(10.7674 9.07014)">
<stop stop-color="#DBAE3D"/>
<stop offset="1" stop-color="#755D21"/>
</radialGradient>
<radialGradient id="paint15_radial_876_39120" cx="0" cy="0" r="1" gradientUnits="userSpaceOnUse" gradientTransform="translate(43.9654 32.1763) rotate(17.3519) scale(11.539 7.89638)">
<stop stop-color="#DBAE3D"/>
<stop offset="1" stop-color="#755D21"/>
</radialGradient>
<radialGradient id="paint16_radial_876_39120" cx="0" cy="0" r="1" gradientUnits="userSpaceOnUse" gradientTransform="translate(27.9688 52.3455) rotate(-56.2495) scale(11.909 7.21394)">
<stop stop-color="#DBAE3D"/>
<stop offset="1" stop-color="#755D21"/>
</radialGradient>
<radialGradient id="paint17_radial_876_39120" cx="0" cy="0" r="1" gradientUnits="userSpaceOnUse" gradientTransform="translate(22.5597 31.5581) scale(12.6734 16.3054)">
<stop stop-color="#DBAE3D"/>
<stop offset="1" stop-color="#755D21"/>
</radialGradient>
<radialGradient id="paint18_radial_876_39120" cx="0" cy="0" r="1" gradientUnits="userSpaceOnUse" gradientTransform="translate(20.8596 72.051) rotate(-67.8378) scale(11.9049 16.8647)">
<stop stop-color="#DBAE3D"/>
<stop offset="1" stop-color="#755D21"/>
</radialGradient>
<radialGradient id="paint19_radial_876_39120" cx="0" cy="0" r="1" gradientUnits="userSpaceOnUse" gradientTransform="translate(57.4115 87.1973) rotate(-133.357) scale(10.8692 17.4766)">
<stop stop-color="#DBAE3D"/>
<stop offset="1" stop-color="#755D21"/>
</radialGradient>
<radialGradient id="paint20_radial_876_39120" cx="0" cy="0" r="1" gradientUnits="userSpaceOnUse" gradientTransform="translate(84.2087 53.3907) rotate(152.058) scale(10.8692 17.4766)">
<stop stop-color="#DBAE3D"/>
<stop offset="1" stop-color="#755D21"/>
</radialGradient>
<radialGradient id="paint21_radial_876_39120" cx="0" cy="0" r="1" gradientUnits="userSpaceOnUse" gradientTransform="translate(61.2161 19.4065) rotate(133.357) scale(8.90114 18.4033)">
<stop stop-color="#DBAE3D"/>
<stop offset="1" stop-color="#755D21"/>
</radialGradient>
<radialGradient id="paint22_radial_876_39120" cx="0" cy="0" r="1" gradientUnits="userSpaceOnUse" gradientTransform="translate(50.25 53.1749) rotate(90) scale(24.375 24)">
<stop stop-color="#755D21"/>
<stop offset="0.979" stop-color="#382606"/>
</radialGradient>
<clipPath id="clip0_876_39120">
<rect width="32" height="32" fill="white" transform="translate(34.333 35.332)"/>
</clipPath>
</defs>
</svg>
