<svg width="252" height="153" viewBox="0 0 252 153" fill="none" xmlns="http://www.w3.org/2000/svg">
<g clip-path="url(#paint0_diamond_876_39387_clip_path)" data-figma-skip-parse="true"><g transform="matrix(-0.120349 0.0671512 -0.111658 -0.200115 126.581 79.8865)"><rect x="0" y="0" width="1079.41" height="576.474" fill="url(#paint0_diamond_876_39387)" opacity="1" shape-rendering="crispEdges"/><rect x="0" y="0" width="1079.41" height="576.474" transform="scale(1 -1)" fill="url(#paint0_diamond_876_39387)" opacity="1" shape-rendering="crispEdges"/><rect x="0" y="0" width="1079.41" height="576.474" transform="scale(-1 1)" fill="url(#paint0_diamond_876_39387)" opacity="1" shape-rendering="crispEdges"/><rect x="0" y="0" width="1079.41" height="576.474" transform="scale(-1)" fill="url(#paint0_diamond_876_39387)" opacity="1" shape-rendering="crispEdges"/></g></g><path d="M234.721 151.398V152.27H235.082L235.338 152.015L234.721 151.398ZM1 17.0959L0.383337 16.4792L0.127907 16.7346V17.0959H1ZM16.6977 1.39818V0.526085H16.3364L16.081 0.781515L16.6977 1.39818ZM16.6977 151.398L16.081 152.015L16.3364 152.27H16.6977V151.398ZM1 135.701H0.127907V136.062L0.383337 136.317L1 135.701ZM250.419 135.701L251.035 136.317L251.291 136.062V135.701H250.419ZM250.419 17.0959H251.291V16.7346L251.035 16.4792L250.419 17.0959ZM234.721 1.39818L235.338 0.781515L235.082 0.526085H234.721V1.39818ZM244.314 1.39818V0.526085H243.442V1.39818H244.314ZM250.419 1.39818H251.291V0.526085H250.419V1.39818ZM250.419 7.50283V8.37492H251.291V7.50283H250.419ZM244.314 151.398H243.442V152.27H244.314V151.398ZM250.419 151.398V152.27H251.291V151.398H250.419ZM250.419 145.294H251.291V144.421H250.419V145.294ZM1 145.294V144.421H0.127907V145.294H1ZM1 151.398H0.127907V152.27H1V151.398ZM7.10465 151.398V152.27H7.97674V151.398H7.10465ZM7.10465 1.39818H7.97674V0.526085H7.10465V1.39818ZM1 1.39818V0.526085H0.127907V1.39818H1ZM1 7.50283H0.127907V8.37492H1V7.50283ZM1.61666 17.7125L17.3143 2.01484L16.081 0.781515L0.383337 16.4792L1.61666 17.7125ZM17.3143 150.782L1.61666 135.084L0.383337 136.317L16.081 152.015L17.3143 150.782ZM235.338 152.015L251.035 136.317L249.802 135.084L234.104 150.782L235.338 152.015ZM251.291 135.701V17.0959H249.547V135.701H251.291ZM251.035 16.4792L235.338 0.781515L234.104 2.01484L249.802 17.7125L251.035 16.4792ZM16.6977 6.63074H7.10465V8.37492H16.6977V6.63074ZM6.23256 7.50283V17.0959H7.97674V7.50283H6.23256ZM16.081 6.88617L6.48799 16.4792L7.72131 17.7125L17.3143 8.11949L16.081 6.88617ZM7.10465 146.166H16.6977V144.421H7.10465V146.166ZM6.23256 17.0959V135.701H7.97674V17.0959H6.23256ZM6.23256 135.701V145.294H7.97674V135.701H6.23256ZM17.3143 144.677L7.72131 135.084L6.48799 136.317L16.081 145.91L17.3143 144.677ZM245.186 17.0959V7.50283H243.442V17.0959H245.186ZM244.314 6.63074H234.721V8.37492H244.314V6.63074ZM234.721 6.63074H16.6977V8.37492H234.721V6.63074ZM244.931 16.4792L235.338 6.88617L234.104 8.11949L243.697 17.7125L244.931 16.4792ZM245.186 145.294V135.701H243.442V145.294H245.186ZM245.186 135.701V17.0959H243.442V135.701H245.186ZM16.6977 146.166H234.721V144.421H16.6977V146.166ZM234.721 146.166H244.314V144.421H234.721V146.166ZM243.697 135.084L234.104 144.677L235.338 145.91L244.931 136.317L243.697 135.084ZM245.186 7.50283V1.39818H243.442V7.50283H245.186ZM244.314 2.27027H250.419V0.526085H244.314V2.27027ZM249.547 1.39818V7.50283H251.291V1.39818H249.547ZM250.419 6.63074H244.314V8.37492H250.419V6.63074ZM243.442 145.294V151.398H245.186V145.294H243.442ZM244.314 152.27H250.419V150.526H244.314V152.27ZM251.291 151.398V145.294H249.547V151.398H251.291ZM250.419 144.421H244.314V146.166H250.419V144.421ZM16.6977 2.27027H234.721V0.526085H16.6977V2.27027ZM0.127907 17.0959V135.701H1.87209V17.0959H0.127907ZM16.6977 152.27H234.721V150.526H16.6977V152.27ZM7.10465 144.421H1V146.166H7.10465V144.421ZM0.127907 145.294V151.398H1.87209V145.294H0.127907ZM1 152.27H7.10465V150.526H1V152.27ZM7.97674 151.398V145.294H6.23256V151.398H7.97674ZM7.97674 7.50283V1.39818H6.23256V7.50283H7.97674ZM7.10465 0.526085H1V2.27027H7.10465V0.526085ZM0.127907 1.39818V7.50283H1.87209V1.39818H0.127907ZM1 8.37492H7.10465V6.63074H1V8.37492Z" data-figma-gradient-fill="{&#34;type&#34;:&#34;GRADIENT_DIAMOND&#34;,&#34;stops&#34;:[{&#34;color&#34;:{&#34;r&#34;:0.85882353782653809,&#34;g&#34;:0.68235296010971069,&#34;b&#34;:0.23921568691730499,&#34;a&#34;:1.0},&#34;position&#34;:0.0},{&#34;color&#34;:{&#34;r&#34;:0.65188676118850708,&#34;g&#34;:0.51185774803161621,&#34;b&#34;:0.16022925078868866,&#34;a&#34;:1.0},&#34;position&#34;:0.45535865426063538},{&#34;color&#34;:{&#34;r&#34;:0.32685187458992004,&#34;g&#34;:0.24406155943870544,&#34;b&#34;:0.036165539175271988,&#34;a&#34;:1.0},&#34;position&#34;:1.0}],&#34;stopsVar&#34;:[{&#34;color&#34;:{&#34;r&#34;:0.85882353782653809,&#34;g&#34;:0.68235296010971069,&#34;b&#34;:0.23921568691730499,&#34;a&#34;:1.0},&#34;position&#34;:0.0},{&#34;color&#34;:{&#34;r&#34;:0.65188676118850708,&#34;g&#34;:0.51185774803161621,&#34;b&#34;:0.16022925078868866,&#34;a&#34;:1.0},&#34;position&#34;:0.45535865426063538},{&#34;color&#34;:{&#34;r&#34;:0.32685187458992004,&#34;g&#34;:0.24406155943870544,&#34;b&#34;:0.036165539175271988,&#34;a&#34;:1.0},&#34;position&#34;:1.0}],&#34;transform&#34;:{&#34;m00&#34;:-240.69769287109375,&#34;m01&#34;:-223.31668090820312,&#34;m02&#34;:358.58859252929688,&#34;m10&#34;:134.30232238769531,&#34;m11&#34;:-400.22982788085938,&#34;m12&#34;:212.85028076171875},&#34;opacity&#34;:1.0,&#34;blendMode&#34;:&#34;NORMAL&#34;,&#34;visible&#34;:true}"/>
<defs>
<clipPath id="paint0_diamond_876_39387_clip_path"><path d="M234.721 151.398V152.27H235.082L235.338 152.015L234.721 151.398ZM1 17.0959L0.383337 16.4792L0.127907 16.7346V17.0959H1ZM16.6977 1.39818V0.526085H16.3364L16.081 0.781515L16.6977 1.39818ZM16.6977 151.398L16.081 152.015L16.3364 152.27H16.6977V151.398ZM1 135.701H0.127907V136.062L0.383337 136.317L1 135.701ZM250.419 135.701L251.035 136.317L251.291 136.062V135.701H250.419ZM250.419 17.0959H251.291V16.7346L251.035 16.4792L250.419 17.0959ZM234.721 1.39818L235.338 0.781515L235.082 0.526085H234.721V1.39818ZM244.314 1.39818V0.526085H243.442V1.39818H244.314ZM250.419 1.39818H251.291V0.526085H250.419V1.39818ZM250.419 7.50283V8.37492H251.291V7.50283H250.419ZM244.314 151.398H243.442V152.27H244.314V151.398ZM250.419 151.398V152.27H251.291V151.398H250.419ZM250.419 145.294H251.291V144.421H250.419V145.294ZM1 145.294V144.421H0.127907V145.294H1ZM1 151.398H0.127907V152.27H1V151.398ZM7.10465 151.398V152.27H7.97674V151.398H7.10465ZM7.10465 1.39818H7.97674V0.526085H7.10465V1.39818ZM1 1.39818V0.526085H0.127907V1.39818H1ZM1 7.50283H0.127907V8.37492H1V7.50283ZM1.61666 17.7125L17.3143 2.01484L16.081 0.781515L0.383337 16.4792L1.61666 17.7125ZM17.3143 150.782L1.61666 135.084L0.383337 136.317L16.081 152.015L17.3143 150.782ZM235.338 152.015L251.035 136.317L249.802 135.084L234.104 150.782L235.338 152.015ZM251.291 135.701V17.0959H249.547V135.701H251.291ZM251.035 16.4792L235.338 0.781515L234.104 2.01484L249.802 17.7125L251.035 16.4792ZM16.6977 6.63074H7.10465V8.37492H16.6977V6.63074ZM6.23256 7.50283V17.0959H7.97674V7.50283H6.23256ZM16.081 6.88617L6.48799 16.4792L7.72131 17.7125L17.3143 8.11949L16.081 6.88617ZM7.10465 146.166H16.6977V144.421H7.10465V146.166ZM6.23256 17.0959V135.701H7.97674V17.0959H6.23256ZM6.23256 135.701V145.294H7.97674V135.701H6.23256ZM17.3143 144.677L7.72131 135.084L6.48799 136.317L16.081 145.91L17.3143 144.677ZM245.186 17.0959V7.50283H243.442V17.0959H245.186ZM244.314 6.63074H234.721V8.37492H244.314V6.63074ZM234.721 6.63074H16.6977V8.37492H234.721V6.63074ZM244.931 16.4792L235.338 6.88617L234.104 8.11949L243.697 17.7125L244.931 16.4792ZM245.186 145.294V135.701H243.442V145.294H245.186ZM245.186 135.701V17.0959H243.442V135.701H245.186ZM16.6977 146.166H234.721V144.421H16.6977V146.166ZM234.721 146.166H244.314V144.421H234.721V146.166ZM243.697 135.084L234.104 144.677L235.338 145.91L244.931 136.317L243.697 135.084ZM245.186 7.50283V1.39818H243.442V7.50283H245.186ZM244.314 2.27027H250.419V0.526085H244.314V2.27027ZM249.547 1.39818V7.50283H251.291V1.39818H249.547ZM250.419 6.63074H244.314V8.37492H250.419V6.63074ZM243.442 145.294V151.398H245.186V145.294H243.442ZM244.314 152.27H250.419V150.526H244.314V152.27ZM251.291 151.398V145.294H249.547V151.398H251.291ZM250.419 144.421H244.314V146.166H250.419V144.421ZM16.6977 2.27027H234.721V0.526085H16.6977V2.27027ZM0.127907 17.0959V135.701H1.87209V17.0959H0.127907ZM16.6977 152.27H234.721V150.526H16.6977V152.27ZM7.10465 144.421H1V146.166H7.10465V144.421ZM0.127907 145.294V151.398H1.87209V145.294H0.127907ZM1 152.27H7.10465V150.526H1V152.27ZM7.97674 151.398V145.294H6.23256V151.398H7.97674ZM7.97674 7.50283V1.39818H6.23256V7.50283H7.97674ZM7.10465 0.526085H1V2.27027H7.10465V0.526085ZM0.127907 1.39818V7.50283H1.87209V1.39818H0.127907ZM1 8.37492H7.10465V6.63074H1V8.37492Z"/></clipPath><linearGradient id="paint0_diamond_876_39387" x1="0" y1="0" x2="500" y2="500" gradientUnits="userSpaceOnUse">
<stop stop-color="#DBAE3D"/>
<stop offset="0.455359" stop-color="#A68329"/>
<stop offset="1" stop-color="#533E09"/>
</linearGradient>
</defs>
</svg>
