<svg width="102" height="108" viewBox="0 0 102 108" fill="none" xmlns="http://www.w3.org/2000/svg">
<path d="M57.0842 78.4649C58.7034 82.7317 59.3808 85.0263 60.0207 88.9745C65.392 87.1789 68.2455 85.8014 72.8486 82.4833L70.5304 79.7013L62.339 84.3379C61.8486 83.2938 60.8747 81.2166 60.9481 81.2469C61.774 81.5881 68.3632 77.6673 70.5304 75.0648L77.622 83.4518" stroke="url(#paint0_radial_876_39220)" stroke-width="0.927319"/>
<path d="M75.5201 51.1439C80.0637 50.7172 82.4559 50.6741 86.4322 51.1067C86.1289 45.4514 85.5595 42.3343 83.5843 37.0148L80.2862 38.5102L82.5786 47.6393C81.4417 47.8345 79.1803 48.2213 79.229 48.1586C79.7775 47.453 77.7492 40.0587 75.8164 37.2777L85.6589 32.6038" stroke="url(#paint1_radial_876_39220)" stroke-width="0.927319"/>
<path d="M53.8402 78.9253C54.1775 83.4765 54.5341 85.8423 55.6239 89.6907C49.9973 90.3351 46.8289 90.2937 41.2544 89.2336L42.1787 85.7323L51.5623 86.4696C51.5651 85.316 51.5692 83.0218 51.5155 83.0803C50.9113 83.7388 43.2823 82.9725 40.2178 81.5307L37.389 91.5493" stroke="url(#paint2_radial_876_39220)" stroke-width="0.927319"/>
<path d="M75.125 54.6748C79.6021 55.5595 81.954 55.5633 85.9537 55.5356C85.0793 61.1311 84.1972 64.1744 81.6935 69.2666L78.5637 67.4449L81.7688 58.5949C80.6575 58.2855 78.4469 57.6718 78.489 57.7391C78.9632 58.4965 76.1966 65.6474 73.9921 68.2184L82.8984 73.6085" stroke="url(#paint3_radial_876_39220)" stroke-width="0.927319"/>
<path d="M56.6768 27.9928C57.5987 23.5233 58.2578 21.2233 59.8353 17.5478C54.339 16.1823 51.1918 15.8144 45.5271 16.146L45.9916 19.7374L55.3918 20.2176C55.2457 21.3619 54.9536 23.6374 54.9079 23.5725C54.3938 22.8415 46.7297 22.6165 43.5047 23.6506L41.9929 13.3507" stroke="url(#paint4_radial_876_39220)" stroke-width="0.927319"/>
<path d="M9.32627 55.1273C9.32627 55.1273 18.6025 54.5984 19.2175 54.1996C22.0605 66.2568 19.0483 54.999 22.1549 65.8064L19.8585 66.7114C17.9132 63.2535 17.3687 61.216 17.1514 57.4456C16.1437 58.007 13.4996 57.4456 13.4996 57.4456C12.3522 60.7524 16.7338 71.1649 18.2907 70.7371C21.6707 68.8116 23.5657 67.732 26.9457 65.8064" stroke="url(#paint5_radial_876_39220)" stroke-width="0.927319"/>
<path d="M31.2341 89.4381C31.2341 89.4381 35.7787 80.2901 36.3779 79.8682C26.2501 72.7347 35.5731 79.7271 26.7032 72.8151L25.0073 74.6085C27.4906 77.7028 29.1782 78.9676 32.5957 80.575C31.6991 81.3008 31.2342 83.9636 31.2342 83.9636C27.738 83.7953 19.7099 75.8475 20.6873 74.5623C23.7342 72.144 25.4425 70.7881 28.4894 68.3698" stroke="url(#paint6_radial_876_39220)" stroke-width="0.927319"/>
<path d="M80.2602 25.205C80.2602 25.205 73.6225 31.7066 73.4217 32.4115C63.3478 25.2021 73.0232 31.6982 63.5731 25.6034L64.707 23.4109C68.4471 24.7351 70.1976 25.9112 72.842 28.6077C73.2316 27.5219 75.5921 26.205 75.5921 26.205C74.2804 22.9598 64.13 18.0013 63.239 19.3478C61.9605 23.0217 61.1446 25.4885 59.8662 29.1624" stroke="url(#paint7_radial_876_39220)" stroke-width="0.927319"/>
<path d="M9.61834 47.4088C9.61834 47.4088 18.7691 49.0191 19.3332 49.487C23.567 37.8452 19.2587 48.6734 23.608 38.3035L21.4333 37.1361C19.0968 40.3428 18.3178 42.3026 17.661 46.0217C16.7258 45.3463 14.0342 45.5946 14.0342 45.5946C13.2815 42.1762 18.8509 32.3477 20.3471 32.9547C23.4786 35.2624 25.2344 36.5562 28.3659 38.8639" stroke="url(#paint8_radial_876_39220)" stroke-width="0.927319"/>
<path d="M34.674 15.5618C34.674 15.5618 38.2924 24.785 38.8596 25.2492C28.2428 31.632 38.0468 25.3317 28.7005 31.5846L27.1386 29.6733C29.8391 26.7665 31.6136 25.627 35.1384 24.2708C34.2966 23.4821 34.0253 20.7927 34.0253 20.7927C30.5261 20.7079 21.9446 28.0547 22.8266 29.4071C25.6907 32.0394 27.7915 33.3306 30.6556 35.9628" stroke="url(#paint9_radial_876_39220)" stroke-width="0.927319"/>
<path d="M72.0584 67.2237C67.9963 74.7753 60.3346 77.2597 56.6206 78.3928" stroke="url(#paint10_linear_876_39220)" stroke-width="0.927319"/>
<path d="M66.8749 33.6748C73.0554 38.4059 75.5282 46.4793 75.3269 51.5718" stroke="url(#paint11_linear_876_39220)" stroke-width="0.927319"/>
<path d="M71.3749 38.5498C68.1896 34.0705 62.0844 29.6593 59.5396 28.6691" stroke="url(#paint12_linear_876_39220)" stroke-width="0.927319"/>
<path d="M54.1478 78.9286C45.7024 80.7727 34.6792 77.7444 28.1829 68.0364" stroke="url(#paint13_radial_876_39220)" stroke-width="0.927319"/>
<path d="M75.1864 54.098C76.2459 64.0893 68.8289 75.6996 56.6028 78.3516" stroke="url(#paint14_radial_876_39220)" stroke-width="0.927319"/>
<path d="M57.0843 28.0806C50.625 26.4339 39.3154 26.8104 30.3466 36.2719" stroke="url(#paint15_radial_876_39220)" stroke-width="0.927319"/>
<path d="M28.337 38.4356C25.3565 43.658 21.1309 54.2892 27.1006 66.2552" stroke="url(#paint16_radial_876_39220)" stroke-width="0.927319"/>
<path d="M34.9832 15.2527C23.182 19.584 12.3551 31.6581 9.63647 47.8634" stroke="url(#paint17_radial_876_39220)" stroke-width="0.927319"/>
<path d="M9.48177 54.6637C9.04134 67.227 17.755 80.8073 31.7374 89.4382" stroke="url(#paint18_radial_876_39220)" stroke-width="0.927319"/>
<path d="M36.9923 91.2929C49.925 97.1546 66.2214 92.6355 77.3307 83.1016" stroke="url(#paint19_radial_876_39220)" stroke-width="0.927319"/>
<path d="M82.5459 73.9229C91.6344 63.0136 91.6098 46.1022 85.3718 32.8583" stroke="url(#paint20_radial_876_39220)" stroke-width="0.927319"/>
<path d="M41.4743 13.2437C59.4469 9.7467 72.8801 17.7466 80.4217 25.6078" stroke="url(#paint21_radial_876_39220)" stroke-width="0.927319"/>
<g filter="url(#filter0_f_876_39220)">
<path d="M74 53.1748C74 66.6367 63.2548 77.5498 50 77.5498C36.7452 77.5498 26 66.6367 26 53.1748C26 39.7129 36.7452 28.7998 50 28.7998C63.2548 28.7998 74 39.7129 74 53.1748Z" fill="url(#paint22_radial_876_39220)"/>
</g>
<g opacity="0.936">
<path fill-rule="evenodd" clip-rule="evenodd" d="M51.3808 39.6617C51.664 39.6617 51.9473 39.6617 52.2305 39.6617C52.7735 39.7775 53.255 40.0229 53.6748 40.398C53.8444 40.7862 53.7216 41.0316 53.3066 41.1343C53.0611 41.0498 52.8345 40.9271 52.6269 40.7661C52.3585 40.659 52.0848 40.574 51.8056 40.5113C51.3091 40.5785 51.1014 40.8617 51.1826 41.3609C51.335 41.8638 51.6087 42.2886 52.0039 42.6353C52.7367 42.9585 53.0293 43.5154 52.8818 44.3062C52.8165 44.4744 52.7221 44.6254 52.5986 44.7593C52.5703 45.1742 52.5609 45.5896 52.5703 46.0054C52.9316 45.9938 53.2903 46.0127 53.6465 46.062C53.637 44.7969 53.6465 43.532 53.6748 42.2671C53.8454 41.9819 54.0815 41.9158 54.3828 42.0689C54.4508 42.12 54.4981 42.1861 54.5244 42.2671C54.5339 43.5703 54.5622 44.873 54.6094 46.1753C55.0787 46.2974 55.5507 46.4107 56.0254 46.5152C56.2479 46.3621 56.4933 46.3149 56.7617 46.3736C56.8785 46.4603 56.9541 46.5736 56.9883 46.7134C57.8623 46.9225 58.7308 47.149 59.5937 47.3931C59.8703 47.5751 60.0874 47.8112 60.2451 48.1011C60.4424 48.7394 60.6218 49.3814 60.7832 50.0269C61.2555 50.0737 61.416 50.3191 61.2646 50.7632C61.2038 50.8265 61.1378 50.8832 61.0664 50.9331C61.157 51.2144 61.2419 51.4976 61.3213 51.7827C61.8361 51.8291 62.3553 51.8575 62.8789 51.8677C63.6282 52.0915 63.9398 52.5919 63.8135 53.3687C63.6961 53.7693 63.4412 54.043 63.0488 54.19C62.1099 54.3499 61.1659 54.4442 60.2168 54.4732C59.6708 54.3563 59.2838 54.0448 59.0556 53.5386C58.8669 52.9722 58.678 52.4058 58.4892 51.8394C58.0452 51.82 57.8753 51.5934 57.9795 51.1597C58.0156 51.0576 58.0816 50.9821 58.1777 50.9331C58.0754 50.6261 57.9621 50.324 57.8379 50.0269C57.3013 49.8904 56.7632 49.7582 56.2236 49.6304C56.0201 49.8537 55.7841 49.9009 55.5156 49.772C55.4051 49.6738 55.3485 49.551 55.3457 49.4038C55.1525 49.3879 54.9638 49.3501 54.7793 49.2906C54.5638 49.318 54.3844 49.4124 54.2412 49.5738C54.0465 50.3445 53.8577 51.1186 53.6748 51.896C53.3611 52.4955 53.0118 53.0713 52.6269 53.6236C53.0638 53.801 53.1581 54.0842 52.9101 54.4732C52.7677 54.5441 52.6167 54.5724 52.457 54.5581C52.4476 54.8608 52.4571 55.1629 52.4853 55.4644C53.0366 57.0047 53.5652 58.5529 54.0713 60.1089C54.2892 60.977 54.308 61.8455 54.1279 62.7144C53.8471 62.9531 53.5827 62.9342 53.3349 62.6577C53.3957 61.9361 53.3579 61.2187 53.2217 60.5054C52.9197 59.5144 52.5892 58.5326 52.2305 57.5601C52.1833 57.5412 52.136 57.5223 52.0889 57.5034C51.1204 57.6798 50.1481 57.7081 49.1719 57.5884C48.9249 57.4623 48.8399 57.2641 48.917 56.9937C48.9642 56.8709 49.0491 56.786 49.1719 56.7388C50.0623 56.7983 50.9496 56.7605 51.834 56.6255C51.8599 56.6021 51.8788 56.5737 51.8906 56.5406C51.8108 56.3578 51.7542 56.169 51.7207 55.9742C49.879 56.2216 48.1797 55.844 46.623 54.8413C46.3567 55.0279 46.2245 55.2733 46.2265 55.5777C46.7105 55.8291 47.2014 56.0651 47.6992 56.2857C47.9416 56.5707 47.9227 56.8351 47.6426 57.0786C47.4484 57.1183 47.2596 57.0995 47.0762 57.022C46.6917 56.8581 46.3141 56.6788 45.9433 56.4839C45.9245 56.5311 45.9056 56.5783 45.8867 56.6255C46.146 57.7477 46.4009 58.8711 46.6514 59.9956C46.7345 60.4455 46.7911 60.8986 46.8213 61.355C46.8401 63.4696 46.8591 65.5842 46.8779 67.6988C46.9204 67.7342 46.9676 67.7625 47.0195 67.7837C49.0798 67.8306 51.1377 67.8211 53.1933 67.7554C53.2122 67.6988 53.2311 67.6421 53.25 67.5855C53.0681 66.6303 53.002 65.6674 53.0517 64.6968C52.9942 64.1305 53.2302 63.9134 53.7598 64.0454C53.8475 64.1142 53.9135 64.1992 53.958 64.3003C53.8959 65.4205 53.962 66.5344 54.1562 67.6421C54.1536 68.14 53.927 68.4799 53.4765 68.6617C51.1921 68.6617 48.9075 68.6617 46.623 68.6617C46.2697 68.4871 46.0525 68.2039 45.9717 67.812C45.9528 65.6786 45.9339 63.5451 45.915 61.4117C45.7398 59.9934 45.4566 58.5962 45.0654 57.2202C44.9092 56.4068 45.0225 55.6327 45.4053 54.898C45.8331 54.2217 46.2956 53.5704 46.793 52.9439C46.5564 52.6633 46.5753 52.399 46.8496 52.1509C47.0948 52.0857 47.3119 52.1329 47.501 52.2925C47.7794 52.0918 48.0721 51.9125 48.3789 51.7544C48.5052 51.6091 48.5808 51.4392 48.6055 51.2447C48.4944 50.7155 48.3528 50.1962 48.1806 49.687C47.9443 49.478 47.6705 49.4119 47.3594 49.4888C47.0993 49.5944 46.835 49.6887 46.5664 49.772C46.4037 50.1491 46.1394 50.2341 45.7734 50.0269C45.2547 50.2344 44.726 50.4138 44.1875 50.565C43.6847 50.647 43.2316 50.5337 42.8281 50.2251C42.4033 49.7625 41.9785 49.3 41.5537 48.8374C41.1633 48.9774 40.9273 48.8452 40.8457 48.4409C40.8604 48.3454 40.8982 48.2604 40.959 48.1861C40.789 48.0161 40.6191 47.8462 40.4492 47.6763C39.8934 47.8873 39.327 48.0856 38.75 48.271C37.8593 48.1448 37.4722 47.6351 37.5889 46.7417C37.659 46.4449 37.8195 46.2089 38.0703 46.0337C38.75 45.6372 39.4297 45.2408 40.1094 44.8443C40.6154 44.6578 41.1063 44.6956 41.582 44.9576C42.0163 45.354 42.4505 45.7505 42.8848 46.147C43.4583 46.0409 43.6849 46.2674 43.5644 46.8267C43.8032 47.0375 44.0486 47.2357 44.3008 47.4214C44.4535 47.38 44.6046 47.3327 44.7539 47.2798C44.922 46.8438 45.2147 46.7399 45.6318 46.9683C46.5563 46.6412 47.4909 46.3486 48.4355 46.0904C48.8883 46.062 49.3414 46.0526 49.7949 46.062C49.8135 45.7576 49.7946 45.4555 49.7383 45.1558C49.0143 44.8369 48.6744 44.2799 48.7187 43.4849C48.7019 42.5916 48.9568 41.7892 49.4834 41.0777C49.7307 40.8112 50.0234 40.613 50.3613 40.4829C50.6071 40.087 50.9469 39.8133 51.3808 39.6617ZM50.248 41.5874C50.5696 42.4932 51.136 43.2107 51.9473 43.7398C52.0428 43.9325 52.005 44.093 51.834 44.2212C51.3075 44.5211 50.76 44.5589 50.1914 44.3345C49.7766 44.2039 49.5878 43.9206 49.625 43.4849C49.6135 42.7736 49.8212 42.1411 50.248 41.5874ZM51.6074 45.2691C51.6729 45.7122 51.6823 46.1653 51.6357 46.6284C51.3597 47.0574 51.0575 47.0764 50.7295 46.6851C50.7012 46.2324 50.6918 45.7792 50.7012 45.3257C51.016 45.4087 51.3181 45.3898 51.6074 45.2691ZM40.6191 45.6089C40.8518 45.633 41.0594 45.718 41.2422 45.8638C41.6046 46.2066 41.935 46.5559 42.2334 46.9117C42.0257 47.1194 41.818 47.327 41.6103 47.5347C41.3357 47.2771 41.0808 47.0034 40.8457 46.7134C40.7494 46.6591 40.6456 46.6308 40.5342 46.6284C39.9253 46.8347 39.3306 47.0801 38.75 47.3648C38.4246 47.2201 38.3869 47.0218 38.6367 46.7701C39.2935 46.3663 39.9543 45.9793 40.6191 45.6089ZM49.1152 46.9117C49.3635 46.8932 49.609 46.9121 49.8515 46.9683C50.1707 47.6756 50.7182 47.9682 51.4941 47.8462C51.9747 47.7056 52.3146 47.4035 52.5137 46.94C53.6733 46.8833 54.7872 47.0627 55.8555 47.4781C55.7575 47.8381 55.6536 48.1969 55.5439 48.5542C54.865 48.2822 54.2419 48.3766 53.6748 48.8374C52.8662 48.1179 52.0449 48.099 51.2109 48.7808C50.3359 48.097 49.4863 48.1347 48.6621 48.8941C48.2222 48.5752 47.7314 48.4713 47.1894 48.5826C46.8997 48.6697 46.6165 48.7735 46.3398 48.8941C46.1856 48.5637 46.0535 48.2238 45.9433 47.8745C46.9741 47.4363 48.0313 47.1153 49.1152 46.9117ZM42.8848 47.5347C43.2261 47.7337 43.5282 47.9886 43.791 48.2993C43.8665 48.3371 43.9421 48.3748 44.0176 48.4126C44.3557 48.3758 44.686 48.2909 45.0088 48.1577C45.0623 48.1807 45.1001 48.2185 45.1221 48.271C45.2301 48.5759 45.3245 48.8779 45.4053 49.1773C44.9625 49.3375 44.5188 49.498 44.0742 49.6587C43.899 49.6957 43.729 49.6767 43.5644 49.6021C43.1023 49.1681 42.668 48.7056 42.2617 48.2144C42.4707 47.9867 42.6783 47.7601 42.8848 47.5347ZM56.7617 47.648C57.5894 47.7852 58.4013 47.9834 59.1973 48.2427C59.3172 48.3408 59.4021 48.4635 59.4521 48.6109C59.6303 49.1923 59.7907 49.7776 59.9336 50.3667C59.6398 50.4269 59.3566 50.5213 59.084 50.6499C58.901 50.186 58.7122 49.7235 58.5176 49.2622C57.8464 49.0661 57.1667 48.9056 56.4785 48.7808C56.5377 48.3931 56.6321 48.0155 56.7617 47.648ZM49.9082 49.1773C50.0852 49.198 50.2551 49.2451 50.418 49.3189C50.7709 49.7701 51.2051 49.8645 51.7207 49.6021C52.2246 49.0154 52.6872 49.0437 53.1084 49.687C53.1417 49.9718 53.1323 50.255 53.0801 50.5367C51.834 50.5367 50.5879 50.5367 49.3418 50.5367C49.34 50.3407 49.3022 50.1519 49.2285 49.9702C49.2772 49.5445 49.5037 49.2802 49.9082 49.1773ZM60.1035 51.2163C60.16 51.2146 60.1978 51.243 60.2168 51.3013C60.3439 51.7059 60.4666 52.1118 60.5849 52.5191C60.6321 52.5663 60.6794 52.6135 60.7265 52.6607C61.4008 52.7339 62.0805 52.7717 62.7656 52.774C63.0174 53.0254 62.9797 53.2142 62.6523 53.3404C61.9635 53.4276 61.2743 53.5126 60.5849 53.5952C60.3837 53.5848 60.2044 53.5188 60.0469 53.397C59.7761 52.8113 59.5495 52.2072 59.3672 51.5845C59.6053 51.4455 59.8508 51.3227 60.1035 51.2163ZM49.4551 51.4429C49.8721 51.4242 50.2875 51.4431 50.7012 51.4995C50.3384 52.427 49.6587 52.8141 48.6621 52.6607C49.143 52.3967 49.4073 51.9908 49.4551 51.4429ZM51.7207 51.4429C52.0988 51.4335 52.4764 51.4429 52.8535 51.4712C52.6076 51.9813 52.315 52.4628 51.9756 52.9156C51.7872 52.4461 51.7022 51.9552 51.7207 51.4429ZM50.9277 52.8589C51.0458 53.2585 51.244 53.6172 51.5224 53.9351C51.5508 54.3122 51.5602 54.6898 51.5508 55.0679C49.9439 55.2979 48.4712 54.9581 47.1328 54.0484C47.2609 53.7884 47.4308 53.5618 47.6426 53.3687C48.6551 53.7239 49.6368 53.6579 50.5879 53.1704C50.7161 53.0789 50.8293 52.975 50.9277 52.8589Z" fill="#DFAD30"/>
<path d="M49.9082 49.1773C50.0852 49.198 50.2551 49.2451 50.418 49.3189C50.7709 49.7701 51.2051 49.8645 51.7207 49.6021C52.2246 49.0154 52.6872 49.0437 53.1084 49.687C53.1417 49.9718 53.1323 50.255 53.0801 50.5367H49.3418C49.34 50.3407 49.3022 50.1519 49.2285 49.9702C49.2772 49.5445 49.5037 49.2802 49.9082 49.1773Z" fill="#DFAD30"/>
</g>
<defs>
<filter id="filter0_f_876_39220" x="23.075" y="25.8748" width="53.85" height="54.6" filterUnits="userSpaceOnUse" color-interpolation-filters="sRGB">
<feFlood flood-opacity="0" result="BackgroundImageFix"/>
<feBlend mode="normal" in="SourceGraphic" in2="BackgroundImageFix" result="shape"/>
<feGaussianBlur stdDeviation="1.4625" result="effect1_foregroundBlur_876_39220"/>
</filter>
<radialGradient id="paint0_radial_876_39220" cx="0" cy="0" r="1" gradientUnits="userSpaceOnUse" gradientTransform="translate(67.2075 82.0196) scale(10.1232 6.95489)">
<stop stop-color="#DBAE3D"/>
<stop offset="1" stop-color="#755D21"/>
</radialGradient>
<radialGradient id="paint1_radial_876_39220" cx="0" cy="0" r="1" gradientUnits="userSpaceOnUse" gradientTransform="translate(81.6378 42.3298) rotate(-74.5846) scale(10.1232 6.95489)">
<stop stop-color="#DBAE3D"/>
<stop offset="1" stop-color="#755D21"/>
</radialGradient>
<radialGradient id="paint2_radial_876_39220" cx="0" cy="0" r="1" gradientUnits="userSpaceOnUse" gradientTransform="translate(46.1702 86.4277) rotate(154.981) scale(10.1232 6.95489)">
<stop stop-color="#DBAE3D"/>
<stop offset="1" stop-color="#755D21"/>
</radialGradient>
<radialGradient id="paint3_radial_876_39220" cx="0" cy="0" r="1" gradientUnits="userSpaceOnUse" gradientTransform="translate(80.2953 63.7819) rotate(80.3967) scale(10.1232 6.95489)">
<stop stop-color="#DBAE3D"/>
<stop offset="1" stop-color="#755D21"/>
</radialGradient>
<radialGradient id="paint4_radial_876_39220" cx="0" cy="0" r="1" gradientUnits="userSpaceOnUse" gradientTransform="translate(50.0395 19.563) rotate(-147.564) scale(10.1232 6.95489)">
<stop stop-color="#DBAE3D"/>
<stop offset="1" stop-color="#755D21"/>
</radialGradient>
<radialGradient id="paint5_radial_876_39220" cx="0" cy="0" r="1" gradientUnits="userSpaceOnUse" gradientTransform="translate(17.3475 61.5632) rotate(35.7217) scale(10.2698 7.07001)">
<stop stop-color="#DBAE3D"/>
<stop offset="1" stop-color="#755D21"/>
</radialGradient>
<radialGradient id="paint6_radial_876_39220" cx="0" cy="0" r="1" gradientUnits="userSpaceOnUse" gradientTransform="translate(28.9167 79.1366) rotate(-103.831) scale(10.5568 7.07001)">
<stop stop-color="#DBAE3D"/>
<stop offset="1" stop-color="#755D21"/>
</radialGradient>
<radialGradient id="paint7_radial_876_39220" cx="0" cy="0" r="1" gradientUnits="userSpaceOnUse" gradientTransform="translate(69.9169 25.6423) rotate(174.579) scale(10.3383 7.07001)">
<stop stop-color="#DBAE3D"/>
<stop offset="1" stop-color="#755D21"/>
</radialGradient>
<radialGradient id="paint8_radial_876_39220" cx="0" cy="0" r="1" gradientUnits="userSpaceOnUse" gradientTransform="translate(18.3373 41.9553) rotate(-29.0047) scale(10.2698 7.07001)">
<stop stop-color="#DBAE3D"/>
<stop offset="1" stop-color="#755D21"/>
</radialGradient>
<radialGradient id="paint9_radial_876_39220" cx="0" cy="0" r="1" gradientUnits="userSpaceOnUse" gradientTransform="translate(31.3941 25.35) rotate(107.975) scale(10.3226 7.07001)">
<stop stop-color="#DBAE3D"/>
<stop offset="1" stop-color="#755D21"/>
</radialGradient>
<linearGradient id="paint10_linear_876_39220" x1="63.0032" y1="78.9801" x2="63.34" y2="68.6996" gradientUnits="userSpaceOnUse">
<stop stop-color="#DBAE3D"/>
<stop offset="1" stop-color="#755D21"/>
</linearGradient>
<linearGradient id="paint11_linear_876_39220" x1="77.5897" y1="45.5749" x2="67.7686" y2="42.5175" gradientUnits="userSpaceOnUse">
<stop stop-color="#DBAE3D"/>
<stop offset="1" stop-color="#755D21"/>
</linearGradient>
<linearGradient id="paint12_linear_876_39220" x1="64.1509" y1="28.2686" x2="64.3731" y2="35.0485" gradientUnits="userSpaceOnUse">
<stop stop-color="#DBAE3D"/>
<stop offset="1" stop-color="#755D21"/>
</linearGradient>
<radialGradient id="paint13_radial_876_39220" cx="0" cy="0" r="1" gradientUnits="userSpaceOnUse" gradientTransform="translate(41.1653 73.4825) rotate(-17.3519) scale(10.7674 9.07014)">
<stop stop-color="#DBAE3D"/>
<stop offset="1" stop-color="#755D21"/>
</radialGradient>
<radialGradient id="paint14_radial_876_39220" cx="0" cy="0" r="1" gradientUnits="userSpaceOnUse" gradientTransform="translate(66.4853 65.1657) rotate(-91.9365) scale(10.7674 9.07014)">
<stop stop-color="#DBAE3D"/>
<stop offset="1" stop-color="#755D21"/>
</radialGradient>
<radialGradient id="paint15_radial_876_39220" cx="0" cy="0" r="1" gradientUnits="userSpaceOnUse" gradientTransform="translate(43.7154 32.1762) rotate(17.3519) scale(11.539 7.89638)">
<stop stop-color="#DBAE3D"/>
<stop offset="1" stop-color="#755D21"/>
</radialGradient>
<radialGradient id="paint16_radial_876_39220" cx="0" cy="0" r="1" gradientUnits="userSpaceOnUse" gradientTransform="translate(27.7188 52.3454) rotate(-56.2495) scale(11.909 7.21394)">
<stop stop-color="#DBAE3D"/>
<stop offset="1" stop-color="#755D21"/>
</radialGradient>
<radialGradient id="paint17_radial_876_39220" cx="0" cy="0" r="1" gradientUnits="userSpaceOnUse" gradientTransform="translate(22.3098 31.558) scale(12.6734 16.3054)">
<stop stop-color="#DBAE3D"/>
<stop offset="1" stop-color="#755D21"/>
</radialGradient>
<radialGradient id="paint18_radial_876_39220" cx="0" cy="0" r="1" gradientUnits="userSpaceOnUse" gradientTransform="translate(20.6096 72.0509) rotate(-67.8378) scale(11.9049 16.8647)">
<stop stop-color="#DBAE3D"/>
<stop offset="1" stop-color="#755D21"/>
</radialGradient>
<radialGradient id="paint19_radial_876_39220" cx="0" cy="0" r="1" gradientUnits="userSpaceOnUse" gradientTransform="translate(57.1615 87.1972) rotate(-133.357) scale(10.8692 17.4766)">
<stop stop-color="#DBAE3D"/>
<stop offset="1" stop-color="#755D21"/>
</radialGradient>
<radialGradient id="paint20_radial_876_39220" cx="0" cy="0" r="1" gradientUnits="userSpaceOnUse" gradientTransform="translate(83.9589 53.3906) rotate(152.058) scale(10.8692 17.4766)">
<stop stop-color="#DBAE3D"/>
<stop offset="1" stop-color="#755D21"/>
</radialGradient>
<radialGradient id="paint21_radial_876_39220" cx="0" cy="0" r="1" gradientUnits="userSpaceOnUse" gradientTransform="translate(60.9662 19.4065) rotate(133.357) scale(8.90114 18.4033)">
<stop stop-color="#DBAE3D"/>
<stop offset="1" stop-color="#755D21"/>
</radialGradient>
<radialGradient id="paint22_radial_876_39220" cx="0" cy="0" r="1" gradientUnits="userSpaceOnUse" gradientTransform="translate(50 53.1748) rotate(90) scale(24.375 24)">
<stop stop-color="#755D21"/>
<stop offset="0.979" stop-color="#382606"/>
</radialGradient>
</defs>
</svg>
