<svg width="102" height="108" viewBox="0 0 102 108" fill="none" xmlns="http://www.w3.org/2000/svg">
<path d="M56.8342 78.4649C58.4534 82.7317 59.1308 85.0263 59.7707 88.9746C65.142 87.179 67.9955 85.8015 72.5986 82.4833L70.2804 79.7014L62.089 84.338C61.5986 83.2938 60.6247 81.2166 60.6981 81.2469C61.524 81.5881 68.1132 77.6673 70.2804 75.0648L77.372 83.4519" stroke="url(#paint0_radial_876_39359)" stroke-width="0.927319"/>
<path d="M75.2701 51.1439C79.8137 50.7172 82.2059 50.6741 86.1822 51.1067C85.8789 45.4514 85.3095 42.3344 83.3343 37.0148L80.0362 38.5102L82.3286 47.6393C81.1917 47.8345 78.9303 48.2213 78.979 48.1586C79.5275 47.4531 77.4992 40.0588 75.5664 37.2777L85.4089 32.6039" stroke="url(#paint1_radial_876_39359)" stroke-width="0.927319"/>
<path d="M53.5904 78.9253C53.9276 83.4765 54.2842 85.8423 55.3741 89.6907C49.7474 90.3352 46.5791 90.2937 41.0046 89.2337L41.9288 85.7323L51.3124 86.4696C51.3152 85.316 51.3193 83.0218 51.2656 83.0803C50.6615 83.7388 43.0324 82.9725 39.9679 81.5308L37.1392 91.5493" stroke="url(#paint2_radial_876_39359)" stroke-width="0.927319"/>
<path d="M74.875 54.6748C79.3521 55.5595 81.704 55.5633 85.7037 55.5356C84.8293 61.1311 83.9472 64.1745 81.4435 69.2667L78.3137 67.445L81.5188 58.5949C80.4075 58.2856 78.1969 57.6718 78.239 57.7391C78.7132 58.4966 75.9466 65.6475 73.7421 68.2185L82.6484 73.6085" stroke="url(#paint3_radial_876_39359)" stroke-width="0.927319"/>
<path d="M56.4268 27.9928C57.3487 23.5233 58.0078 21.2233 59.5853 17.5478C54.089 16.1824 50.9418 15.8145 45.2771 16.146L45.7416 19.7374L55.1418 20.2176C54.9957 21.3619 54.7036 23.6374 54.6579 23.5725C54.1438 22.8415 46.4797 22.6165 43.2547 23.6506L41.7429 13.3507" stroke="url(#paint4_radial_876_39359)" stroke-width="0.927319"/>
<path d="M9.07639 55.1273C9.07639 55.1273 18.3527 54.5984 18.9676 54.1997C21.8106 66.2569 18.7985 54.999 21.905 65.8064L19.6086 66.7115C17.6633 63.2535 17.1189 61.2161 16.9016 57.4456C15.8938 58.007 13.2497 57.4456 13.2497 57.4456C12.1024 60.7524 16.4839 71.1649 18.0408 70.7372C21.4208 68.8116 23.3158 67.732 26.6958 65.8064" stroke="url(#paint5_radial_876_39359)" stroke-width="0.927319"/>
<path d="M30.9841 89.4382C30.9841 89.4382 35.5287 80.2901 36.1279 79.8682C26.0001 72.7348 35.3231 79.7271 26.4532 72.8151L24.7573 74.6085C27.2406 77.7028 28.9282 78.9677 32.3457 80.5751C31.4491 81.3009 30.9842 83.9636 30.9842 83.9636C27.488 83.7953 19.4599 75.8475 20.4373 74.5623C23.4842 72.144 25.1925 70.7881 28.2394 68.3698" stroke="url(#paint6_radial_876_39359)" stroke-width="0.927319"/>
<path d="M80.0102 25.2051C80.0102 25.2051 73.3725 31.7066 73.1717 32.4115C63.0978 25.2021 72.7732 31.6982 63.3231 25.6034L64.457 23.411C68.1971 24.7352 69.9476 25.9113 72.592 28.6077C72.9816 27.5219 75.3421 26.205 75.3421 26.205C74.0304 22.9599 63.88 18.0013 62.989 19.3478C61.7105 23.0217 60.8946 25.4885 59.6162 29.1625" stroke="url(#paint7_radial_876_39359)" stroke-width="0.927319"/>
<path d="M9.36834 47.4089C9.36834 47.4089 18.5191 49.0191 19.0832 49.4871C23.317 37.8452 19.0087 48.6734 23.358 38.3035L21.1833 37.1361C18.8468 40.3428 18.0678 42.3026 17.411 46.0217C16.4758 45.3463 13.7842 45.5946 13.7842 45.5946C13.0315 42.1763 18.6009 32.3478 20.0971 32.9547C23.2286 35.2624 24.9844 36.5562 28.1159 38.8639" stroke="url(#paint8_radial_876_39359)" stroke-width="0.927319"/>
<path d="M34.424 15.5619C34.424 15.5619 38.0424 24.785 38.6096 25.2492C27.9928 31.632 37.7968 25.3317 28.4505 31.5846L26.8886 29.6733C29.5891 26.7666 31.3636 25.627 34.8884 24.2708C34.0466 23.4821 33.7753 20.7928 33.7753 20.7928C30.2761 20.7079 21.6946 28.0547 22.5766 29.4072C25.4407 32.0394 27.5415 33.3306 30.4056 35.9628" stroke="url(#paint9_radial_876_39359)" stroke-width="0.927319"/>
<path d="M71.8084 67.2238C67.7463 74.7754 60.0846 77.2597 56.3706 78.3928" stroke="url(#paint10_linear_876_39359)" stroke-width="0.927319"/>
<path d="M66.6251 33.6748C72.8055 38.4059 75.2783 46.4793 75.077 51.5718" stroke="url(#paint11_linear_876_39359)" stroke-width="0.927319"/>
<path d="M71.1251 38.5499C67.9397 34.0705 61.8345 29.6593 59.2897 28.6692" stroke="url(#paint12_linear_876_39359)" stroke-width="0.927319"/>
<path d="M53.8978 78.9286C45.4524 80.7728 34.4292 77.7445 27.9329 68.0364" stroke="url(#paint13_radial_876_39359)" stroke-width="0.927319"/>
<path d="M74.9364 54.098C75.9959 64.0893 68.5789 75.6997 56.3528 78.3516" stroke="url(#paint14_radial_876_39359)" stroke-width="0.927319"/>
<path d="M56.8343 28.0806C50.375 26.4339 39.0654 26.8104 30.0966 36.2719" stroke="url(#paint15_radial_876_39359)" stroke-width="0.927319"/>
<path d="M28.0871 38.4357C25.1067 43.658 20.881 54.2892 26.8507 66.2552" stroke="url(#paint16_radial_876_39359)" stroke-width="0.927319"/>
<path d="M34.7332 15.2527C22.932 19.584 12.1051 31.6581 9.38647 47.8634" stroke="url(#paint17_radial_876_39359)" stroke-width="0.927319"/>
<path d="M9.23177 54.6637C8.79134 67.227 17.505 80.8073 31.4874 89.4382" stroke="url(#paint18_radial_876_39359)" stroke-width="0.927319"/>
<path d="M36.7423 91.2929C49.675 97.1546 65.9714 92.6355 77.0807 83.1016" stroke="url(#paint19_radial_876_39359)" stroke-width="0.927319"/>
<path d="M82.2959 73.9229C91.3844 63.0136 91.3598 46.1022 85.1218 32.8584" stroke="url(#paint20_radial_876_39359)" stroke-width="0.927319"/>
<path d="M41.2243 13.2437C59.1969 9.74673 72.6301 17.7466 80.1717 25.6078" stroke="url(#paint21_radial_876_39359)" stroke-width="0.927319"/>
<g filter="url(#filter0_f_876_39359)">
<path d="M73.75 53.1748C73.75 66.6368 63.0048 77.5498 49.75 77.5498C36.4952 77.5498 25.75 66.6368 25.75 53.1748C25.75 39.7129 36.4952 28.7998 49.75 28.7998C63.0048 28.7998 73.75 39.7129 73.75 53.1748Z" fill="url(#paint22_radial_876_39359)"/>
</g>
<g clip-path="url(#clip0_876_39359)">
<path d="M63.4219 47C60.6563 42.8282 54.7735 44.2344 54.7735 44.2344C54.7735 44.2344 54.1172 43.3907 53.1328 42.6407V42.711C53.1328 43.3907 51.8438 44.586 50.25 44.586C48.6563 44.586 47.3672 43.4141 47.3672 42.711V42.6641C46.4297 43.4141 45.8438 44.2344 45.8438 44.2344C45.8438 44.2344 39.5157 43.2735 37.1953 47C34.3828 51.5 35.461 60.8282 35.461 60.8282C35.461 60.8282 37.0547 64.6016 38.9297 64.5078C42.6797 64.3438 42.75 59.5157 42.75 59.5157C42.75 59.5157 45.6797 60.1016 46.7813 59.5157C48.211 58.7422 47.9297 56.3985 47.9297 56.3985H51.3985C51.3985 56.3985 51.1172 58.6953 53.1328 59.5157C54.3985 60.0078 56.5078 58.9766 56.5078 58.9766C56.5078 58.9766 59.9532 64.5078 61.711 64.5078C63.8203 64.5078 65.1797 59.8907 65.1797 59.8907C65.1797 59.8907 65.836 50.6563 63.4219 47ZM41.0157 54.5469V52.086L38.7188 52.0625V48.9453H41.0391V46.461H43.9219V48.9453H46.2422V52.0625L43.9219 52.1563V54.5469H41.0157ZM45.3516 58.9063C44.2266 58.9063 43.336 57.9219 43.336 56.7266C43.336 55.5313 44.25 54.5469 45.3516 54.5469C46.4766 54.5469 47.3672 55.5313 47.3672 56.7266C47.3672 57.9453 46.4532 58.9063 45.3516 58.9063ZM58.6172 45.2188C59.7422 45.2188 60.6328 46.2032 60.6328 47.3985C60.6328 48.5938 59.7188 49.5782 58.6172 49.5782C57.5157 49.5782 56.6016 48.5938 56.6016 47.3985C56.6016 46.2032 57.5157 45.2188 58.6172 45.2188ZM54 58.9063C52.875 58.9063 51.9844 57.9219 51.9844 56.7266C51.9844 55.5313 52.8985 54.5469 54 54.5469C55.1016 54.5469 56.0157 55.5313 56.0157 56.7266C56.0391 57.9453 55.125 58.9063 54 58.9063ZM56.3203 53.9375C55.1953 53.9375 54.3047 52.9532 54.3047 51.7578C54.3047 50.5625 55.2188 49.5782 56.3203 49.5782C57.4219 49.5782 58.336 50.5625 58.336 51.7578C58.336 52.9532 57.4219 53.9375 56.3203 53.9375ZM59.2032 58.2969C58.0782 58.2969 57.1875 57.3125 57.1875 56.1172C57.1875 54.9219 58.1016 53.9375 59.2032 53.9375C60.3282 53.9375 61.2188 54.9219 61.2188 56.1172C61.2188 57.3125 60.3282 58.2969 59.2032 58.2969ZM61.5235 53.9375C60.3985 53.9375 59.5078 52.9532 59.5078 51.7578C59.5078 50.5625 60.4219 49.5782 61.5235 49.5782C62.6485 49.5782 63.5391 50.5625 63.5391 51.7578C63.5391 52.9532 62.625 53.9375 61.5235 53.9375Z" fill="#DFAD30"/>
<path fill-rule="evenodd" clip-rule="evenodd" d="M50.25 41.4688C48.9844 41.4688 47.9297 42.0313 47.9297 42.711C47.9297 43.3907 48.9609 43.9532 50.25 43.9532C51.5391 43.9532 52.5703 43.3907 52.5703 42.711C52.5703 42.0313 51.5391 41.4688 50.25 41.4688ZM45.6328 49.5782H43.3125V47.0938H41.5781V49.5782H39.2578V51.4532H41.5781V53.9375H43.3125V51.4532H45.6328V49.5782ZM58.6172 48.9688C59.4141 48.9688 60.0469 48.2657 60.0469 47.3985C60.0469 46.5313 59.4141 45.8282 58.6172 45.8282C57.8203 45.8282 57.1875 46.5313 57.1875 47.3985C57.1875 48.2657 57.8438 48.9688 58.6172 48.9688ZM61.5 50.211C60.7031 50.211 60.0469 50.9141 60.0469 51.7578C60.0469 52.625 60.7031 53.3047 61.5 53.3047C62.2969 53.3047 62.9531 52.6016 62.9531 51.7578C62.9531 50.8907 62.3203 50.211 61.5 50.211ZM56.3203 50.211C55.5234 50.211 54.8672 50.9141 54.8672 51.7578C54.8672 52.625 55.5234 53.3047 56.3203 53.3047C57.1172 53.3047 57.7734 52.6016 57.7734 51.7578C57.7734 50.8907 57.1172 50.211 56.3203 50.211ZM59.2031 54.5469C58.4062 54.5469 57.7734 55.25 57.7734 56.1172C57.7734 56.9844 58.4062 57.6875 59.2031 57.6875C60 57.6875 60.6328 56.9844 60.6328 56.1172C60.6328 55.25 60 54.5469 59.2031 54.5469Z" fill="#DFAD30"/>
</g>
<defs>
<filter id="filter0_f_876_39359" x="22.825" y="25.8748" width="53.85" height="54.6" filterUnits="userSpaceOnUse" color-interpolation-filters="sRGB">
<feFlood flood-opacity="0" result="BackgroundImageFix"/>
<feBlend mode="normal" in="SourceGraphic" in2="BackgroundImageFix" result="shape"/>
<feGaussianBlur stdDeviation="1.4625" result="effect1_foregroundBlur_876_39359"/>
</filter>
<radialGradient id="paint0_radial_876_39359" cx="0" cy="0" r="1" gradientUnits="userSpaceOnUse" gradientTransform="translate(66.9575 82.0197) scale(10.1232 6.95489)">
<stop stop-color="#DBAE3D"/>
<stop offset="1" stop-color="#755D21"/>
</radialGradient>
<radialGradient id="paint1_radial_876_39359" cx="0" cy="0" r="1" gradientUnits="userSpaceOnUse" gradientTransform="translate(81.3878 42.3298) rotate(-74.5846) scale(10.1232 6.95489)">
<stop stop-color="#DBAE3D"/>
<stop offset="1" stop-color="#755D21"/>
</radialGradient>
<radialGradient id="paint2_radial_876_39359" cx="0" cy="0" r="1" gradientUnits="userSpaceOnUse" gradientTransform="translate(45.9203 86.4278) rotate(154.981) scale(10.1232 6.95489)">
<stop stop-color="#DBAE3D"/>
<stop offset="1" stop-color="#755D21"/>
</radialGradient>
<radialGradient id="paint3_radial_876_39359" cx="0" cy="0" r="1" gradientUnits="userSpaceOnUse" gradientTransform="translate(80.0453 63.7819) rotate(80.3967) scale(10.1232 6.95489)">
<stop stop-color="#DBAE3D"/>
<stop offset="1" stop-color="#755D21"/>
</radialGradient>
<radialGradient id="paint4_radial_876_39359" cx="0" cy="0" r="1" gradientUnits="userSpaceOnUse" gradientTransform="translate(49.7895 19.563) rotate(-147.564) scale(10.1232 6.95489)">
<stop stop-color="#DBAE3D"/>
<stop offset="1" stop-color="#755D21"/>
</radialGradient>
<radialGradient id="paint5_radial_876_39359" cx="0" cy="0" r="1" gradientUnits="userSpaceOnUse" gradientTransform="translate(17.0976 61.5633) rotate(35.7217) scale(10.2698 7.07001)">
<stop stop-color="#DBAE3D"/>
<stop offset="1" stop-color="#755D21"/>
</radialGradient>
<radialGradient id="paint6_radial_876_39359" cx="0" cy="0" r="1" gradientUnits="userSpaceOnUse" gradientTransform="translate(28.6667 79.1367) rotate(-103.831) scale(10.5568 7.07001)">
<stop stop-color="#DBAE3D"/>
<stop offset="1" stop-color="#755D21"/>
</radialGradient>
<radialGradient id="paint7_radial_876_39359" cx="0" cy="0" r="1" gradientUnits="userSpaceOnUse" gradientTransform="translate(69.6669 25.6423) rotate(174.579) scale(10.3383 7.07001)">
<stop stop-color="#DBAE3D"/>
<stop offset="1" stop-color="#755D21"/>
</radialGradient>
<radialGradient id="paint8_radial_876_39359" cx="0" cy="0" r="1" gradientUnits="userSpaceOnUse" gradientTransform="translate(18.0873 41.9553) rotate(-29.0047) scale(10.2698 7.07001)">
<stop stop-color="#DBAE3D"/>
<stop offset="1" stop-color="#755D21"/>
</radialGradient>
<radialGradient id="paint9_radial_876_39359" cx="0" cy="0" r="1" gradientUnits="userSpaceOnUse" gradientTransform="translate(31.1441 25.3501) rotate(107.975) scale(10.3226 7.07001)">
<stop stop-color="#DBAE3D"/>
<stop offset="1" stop-color="#755D21"/>
</radialGradient>
<linearGradient id="paint10_linear_876_39359" x1="62.7532" y1="78.9801" x2="63.09" y2="68.6997" gradientUnits="userSpaceOnUse">
<stop stop-color="#DBAE3D"/>
<stop offset="1" stop-color="#755D21"/>
</linearGradient>
<linearGradient id="paint11_linear_876_39359" x1="77.3398" y1="45.575" x2="67.5187" y2="42.5175" gradientUnits="userSpaceOnUse">
<stop stop-color="#DBAE3D"/>
<stop offset="1" stop-color="#755D21"/>
</linearGradient>
<linearGradient id="paint12_linear_876_39359" x1="63.901" y1="28.2687" x2="64.1232" y2="35.0485" gradientUnits="userSpaceOnUse">
<stop stop-color="#DBAE3D"/>
<stop offset="1" stop-color="#755D21"/>
</linearGradient>
<radialGradient id="paint13_radial_876_39359" cx="0" cy="0" r="1" gradientUnits="userSpaceOnUse" gradientTransform="translate(40.9153 73.4825) rotate(-17.3519) scale(10.7674 9.07014)">
<stop stop-color="#DBAE3D"/>
<stop offset="1" stop-color="#755D21"/>
</radialGradient>
<radialGradient id="paint14_radial_876_39359" cx="0" cy="0" r="1" gradientUnits="userSpaceOnUse" gradientTransform="translate(66.2353 65.1658) rotate(-91.9365) scale(10.7674 9.07014)">
<stop stop-color="#DBAE3D"/>
<stop offset="1" stop-color="#755D21"/>
</radialGradient>
<radialGradient id="paint15_radial_876_39359" cx="0" cy="0" r="1" gradientUnits="userSpaceOnUse" gradientTransform="translate(43.4654 32.1763) rotate(17.3519) scale(11.539 7.89638)">
<stop stop-color="#DBAE3D"/>
<stop offset="1" stop-color="#755D21"/>
</radialGradient>
<radialGradient id="paint16_radial_876_39359" cx="0" cy="0" r="1" gradientUnits="userSpaceOnUse" gradientTransform="translate(27.4689 52.3455) rotate(-56.2495) scale(11.909 7.21394)">
<stop stop-color="#DBAE3D"/>
<stop offset="1" stop-color="#755D21"/>
</radialGradient>
<radialGradient id="paint17_radial_876_39359" cx="0" cy="0" r="1" gradientUnits="userSpaceOnUse" gradientTransform="translate(22.0598 31.558) scale(12.6734 16.3054)">
<stop stop-color="#DBAE3D"/>
<stop offset="1" stop-color="#755D21"/>
</radialGradient>
<radialGradient id="paint18_radial_876_39359" cx="0" cy="0" r="1" gradientUnits="userSpaceOnUse" gradientTransform="translate(20.3596 72.051) rotate(-67.8378) scale(11.9049 16.8647)">
<stop stop-color="#DBAE3D"/>
<stop offset="1" stop-color="#755D21"/>
</radialGradient>
<radialGradient id="paint19_radial_876_39359" cx="0" cy="0" r="1" gradientUnits="userSpaceOnUse" gradientTransform="translate(56.9115 87.1973) rotate(-133.357) scale(10.8692 17.4766)">
<stop stop-color="#DBAE3D"/>
<stop offset="1" stop-color="#755D21"/>
</radialGradient>
<radialGradient id="paint20_radial_876_39359" cx="0" cy="0" r="1" gradientUnits="userSpaceOnUse" gradientTransform="translate(83.7089 53.3906) rotate(152.058) scale(10.8692 17.4766)">
<stop stop-color="#DBAE3D"/>
<stop offset="1" stop-color="#755D21"/>
</radialGradient>
<radialGradient id="paint21_radial_876_39359" cx="0" cy="0" r="1" gradientUnits="userSpaceOnUse" gradientTransform="translate(60.7162 19.4066) rotate(133.357) scale(8.90114 18.4033)">
<stop stop-color="#DBAE3D"/>
<stop offset="1" stop-color="#755D21"/>
</radialGradient>
<radialGradient id="paint22_radial_876_39359" cx="0" cy="0" r="1" gradientUnits="userSpaceOnUse" gradientTransform="translate(49.75 53.1748) rotate(90) scale(24.375 24)">
<stop stop-color="#755D21"/>
<stop offset="0.979" stop-color="#382606"/>
</radialGradient>
<clipPath id="clip0_876_39359">
<rect width="30" height="30" fill="white" transform="translate(35.25 38)"/>
</clipPath>
</defs>
</svg>
