<svg width="136" height="143" viewBox="0 0 136 143" fill="none" xmlns="http://www.w3.org/2000/svg">
<path d="M75.9457 104.22C78.1046 109.909 79.0078 112.969 79.861 118.233C87.0226 115.839 90.8274 114.002 96.9649 109.578L93.8738 105.869L82.9521 112.051C82.2982 110.659 80.9996 107.889 81.0975 107.929C82.1987 108.384 90.9843 103.157 93.8738 99.6865L103.329 110.869" stroke="url(#paint0_radial_876_39248)" stroke-width="1.23643"/>
<path d="M100.527 67.792C106.585 67.223 109.775 67.1656 115.076 67.7424C114.672 60.202 113.913 56.0459 111.279 48.9532L106.882 50.9471L109.938 63.1192C108.422 63.3795 105.407 63.8952 105.472 63.8116C106.203 62.8709 103.499 53.0118 100.922 49.3038L114.045 43.0719" stroke="url(#paint1_radial_876_39248)" stroke-width="1.23643"/>
<path d="M71.6205 104.834C72.0702 110.902 72.5456 114.057 73.9988 119.188C66.4966 120.047 62.2721 119.992 54.8395 118.578L56.0718 113.91L68.5832 114.893C68.587 113.355 68.5924 110.296 68.5209 110.374C67.7153 111.252 57.5432 110.23 53.4573 108.308L49.6856 121.666" stroke="url(#paint2_radial_876_39248)" stroke-width="1.23643"/>
<path d="M100 72.4999C105.97 73.6795 109.106 73.6845 114.438 73.6476C113.273 81.1083 112.096 85.1661 108.758 91.9557L104.585 89.5267L108.859 77.7267C107.377 77.3142 104.429 76.4959 104.486 76.5856C105.118 77.5955 101.429 87.1301 98.4896 90.5581L110.365 97.7448" stroke="url(#paint3_radial_876_39248)" stroke-width="1.23643"/>
<path d="M75.4023 36.9239C76.6316 30.9645 77.5103 27.8978 79.6137 22.9971C72.2852 21.1766 68.0889 20.686 60.536 21.1281L61.1553 25.9166L73.689 26.5569C73.4942 28.0827 73.1047 31.1167 73.0438 31.0301C72.3583 30.0555 62.1395 29.7555 57.8395 31.1343L55.8238 17.401" stroke="url(#paint4_radial_876_39248)" stroke-width="1.23643"/>
<path d="M12.2686 73.1032C12.2686 73.1032 24.6369 72.398 25.4569 71.8664C29.2476 87.9426 25.2313 72.9322 29.3734 87.3421L26.3116 88.5488C23.7178 83.9381 22.9918 81.2216 22.7021 76.1943C21.3584 76.9428 17.833 76.1943 17.833 76.1943C16.3032 80.6034 22.1452 94.4867 24.2211 93.9163C28.7278 91.3489 31.2545 89.9095 35.7611 87.3421" stroke="url(#paint5_radial_876_39248)" stroke-width="1.23643"/>
<path d="M41.4788 118.851C41.4788 118.851 47.5382 106.654 48.3373 106.091C34.8335 96.5798 47.2642 105.903 35.4377 96.6869L33.1764 99.0781C36.4875 103.204 38.7375 104.89 43.2943 107.034C42.0988 108.001 41.4789 111.552 41.4789 111.552C36.8173 111.327 26.1132 100.73 27.4164 99.0166C31.479 95.7921 33.7567 93.9843 37.8192 90.7598" stroke="url(#paint6_radial_876_39248)" stroke-width="1.23643"/>
<path d="M106.847 33.2069C106.847 33.2069 97.9966 41.8756 97.7289 42.8154C84.297 33.2029 97.1975 41.8644 84.5974 33.738L86.1092 30.8147C91.0961 32.5803 93.4301 34.1485 96.9559 37.7437C97.4753 36.2959 100.623 34.5401 100.623 34.5401C98.8738 30.2133 85.34 23.6019 84.1519 25.3972C82.4473 30.2957 81.3594 33.5848 79.6548 38.4834" stroke="url(#paint7_radial_876_39248)" stroke-width="1.23643"/>
<path d="M12.6577 62.8119C12.6577 62.8119 24.8587 64.9589 25.6108 65.5829C31.2559 50.0603 25.5115 64.498 31.3106 50.6715L28.4109 49.1149C25.2956 53.3905 24.257 56.0035 23.3812 60.9624C22.1343 60.0619 18.5455 60.3929 18.5455 60.3929C17.5419 55.8351 24.9677 42.7304 26.9627 43.5397C31.1381 46.6166 33.4791 48.3417 37.6545 51.4186" stroke="url(#paint8_radial_876_39248)" stroke-width="1.23643"/>
<path d="M46.0653 20.3492C46.0653 20.3492 50.8899 32.6468 51.6462 33.2657C37.4903 41.7761 50.5623 33.3757 38.1007 41.7129L36.0181 39.1645C39.6188 35.2888 41.9848 33.7694 46.6846 31.9612C45.5621 30.9095 45.2004 27.3237 45.2004 27.3237C40.5348 27.2106 29.0928 37.0063 30.2688 38.8096C34.0877 42.3193 36.8886 44.0408 40.7075 47.5505" stroke="url(#paint9_radial_876_39248)" stroke-width="1.23643"/>
<path d="M95.9113 89.2318C90.4951 99.3006 80.2795 102.613 75.3275 104.124" stroke="url(#paint10_linear_876_39248)" stroke-width="1.23643"/>
<path d="M89.0001 44.4999C97.2408 50.808 100.538 61.5726 100.269 68.3625" stroke="url(#paint11_linear_876_39248)" stroke-width="1.23643"/>
<path d="M95 50.9999C90.7529 45.0274 82.6126 39.1459 79.2195 37.8256" stroke="url(#paint12_linear_876_39248)" stroke-width="1.23643"/>
<path d="M72.0303 104.838C60.7697 107.297 46.0722 103.259 37.4104 90.3153" stroke="url(#paint13_radial_876_39248)" stroke-width="1.23643"/>
<path d="M100.082 71.7308C101.495 85.0526 91.6053 100.533 75.3038 104.069" stroke="url(#paint14_radial_876_39248)" stroke-width="1.23643"/>
<path d="M75.9457 37.0409C67.3333 34.8453 52.2539 35.3473 40.2954 47.9626" stroke="url(#paint15_radial_876_39248)" stroke-width="1.23643"/>
<path d="M37.6162 50.8476C33.6423 57.8107 28.008 71.9857 35.9677 87.9404" stroke="url(#paint16_radial_876_39248)" stroke-width="1.23643"/>
<path d="M46.4775 19.937C30.7425 25.7121 16.3067 41.811 12.6819 63.418" stroke="url(#paint17_radial_876_39248)" stroke-width="1.23643"/>
<path d="M12.4757 72.4851C11.8885 89.2361 23.5066 107.343 42.1499 118.851" stroke="url(#paint18_radial_876_39248)" stroke-width="1.23643"/>
<path d="M49.1565 121.324C66.4001 129.14 88.1287 123.114 102.941 110.402" stroke="url(#paint19_radial_876_39248)" stroke-width="1.23643"/>
<path d="M109.895 98.164C122.013 83.6183 121.98 61.0697 113.662 43.4113" stroke="url(#paint20_radial_876_39248)" stroke-width="1.23643"/>
<path d="M55.1324 17.2584C79.0958 12.5957 97.0067 23.2622 107.062 33.7438" stroke="url(#paint21_radial_876_39248)" stroke-width="1.23643"/>
<g filter="url(#filter0_f_876_39248)">
<path d="M98.5 70.4999C98.5 88.4491 84.1731 103 66.5 103C48.8269 103 34.5 88.4491 34.5 70.4999C34.5 52.5506 48.8269 37.9999 66.5 37.9999C84.1731 37.9999 98.5 52.5506 98.5 70.4999Z" fill="url(#paint22_radial_876_39248)"/>
<path d="M98.46 70.4999C98.46 88.4276 84.1504 102.96 66.5 102.96C48.8496 102.96 34.54 88.4276 34.54 70.4999C34.54 52.5721 48.8496 38.0399 66.5 38.0399C84.1504 38.0399 98.46 52.5721 98.46 70.4999Z" stroke="black" stroke-width="0.08"/>
</g>
<mask id="path-25-inside-1_876_39248" fill="white">
<path d="M53.9537 52.0559C52.9552 52.3115 52.1484 53.2062 51.7809 54.4763C51.6212 55.0355 51.6132 56.2417 51.765 56.8088C52.1724 58.3026 53.2427 59.2851 54.4569 59.2771C55.3356 59.2771 56.0386 58.8458 56.6137 57.9511L56.9093 57.5038L57.1569 57.9112C57.2927 58.1428 57.5004 58.6141 57.6282 58.9656C57.8439 59.5807 57.8518 59.6605 57.8518 61.1623C57.8439 62.4803 57.8199 62.8478 57.6601 63.5587C57.3885 64.8208 56.8453 66.3705 56.1664 67.8163C54.2013 72.002 53.5463 74.1987 53.4424 76.9386C53.3546 79.2552 53.7939 80.9087 54.8883 82.3945C55.088 82.6661 55.2557 82.9057 55.2557 82.9297C55.2557 82.9536 55.1599 82.9696 55.0401 82.9696C54.7125 82.9696 54.1694 83.2731 53.8738 83.6166C53.3626 84.2077 53.2747 84.9826 53.6421 85.7175L53.8738 86.1648H53.4744C52.9152 86.1648 52.5078 86.3086 52.1404 86.6281C51.2697 87.371 51.2138 88.5932 52.0206 89.4C52.6596 90.047 51.4694 89.9991 67.1579 89.9991C82.8464 89.9991 81.6562 90.047 82.2952 89.4C83.102 88.5932 83.0461 87.371 82.1754 86.6281C81.8079 86.3086 81.4005 86.1648 80.8414 86.1648H80.442L80.6736 85.7175C81.0411 84.9746 80.9612 84.2237 80.442 83.6086C80.1304 83.2412 79.6352 82.9776 79.2837 82.9696C79.1559 82.9696 79.0601 82.9536 79.0601 82.9297C79.0601 82.9057 79.2278 82.6661 79.4275 82.3945C80.1384 81.4199 80.6337 80.1978 80.8174 78.9037C80.9532 77.9931 80.8733 75.9961 80.6656 74.8538C80.3461 73.1204 79.739 71.2831 78.8843 69.4299C77.734 66.9456 77.5104 66.4184 77.1829 65.4359C76.6716 63.9182 76.4959 62.9995 76.448 61.5936C76.3841 59.9241 76.5918 58.8617 77.1589 57.9112L77.4065 57.5038L77.7021 57.9511C78.2772 58.8378 78.9722 59.2691 79.8589 59.2771C80.8254 59.2851 81.744 58.6461 82.2393 57.6236C82.5668 56.9446 82.6706 56.4573 82.6627 55.6026C82.6627 53.7094 81.5683 52.2077 80.0586 52.016C79.5793 51.9521 78.1894 52.0879 77.5104 52.2636C76.0965 52.6311 74.8264 53.6535 74.1953 54.9316C74.0116 55.3071 73.78 55.9461 73.6841 56.3455L73.5084 57.0884H67.1579H60.8074L60.6317 56.3455C60.1843 54.4923 59.0341 53.0944 57.4444 52.4713C56.5658 52.1198 54.6167 51.8962 53.9537 52.0559ZM55.1359 52.7669C55.5753 52.9586 56.1664 53.6455 56.39 54.1967C56.5418 54.5801 56.5658 54.8038 56.5738 55.6106C56.5738 56.681 56.5019 57.0085 56.1184 57.6396C55.743 58.2626 55.2078 58.6301 54.6007 58.67C53.9856 58.7179 53.5223 58.5342 53.107 58.0869C52.5318 57.4638 52.2203 56.6251 52.2203 55.6905C52.2203 53.5816 53.6901 52.1039 55.1359 52.7669ZM80.8334 52.9027C81.5763 53.4219 82.0156 54.3006 82.0795 55.4029C82.1275 56.1857 82.0076 56.7848 81.6961 57.4079C81.2727 58.2387 80.6257 58.686 79.8509 58.686C78.8923 58.686 78.0616 57.8472 77.782 56.6011C77.6382 55.9541 77.7101 54.7639 77.9337 54.1967C78.1494 53.6455 78.7325 52.9666 79.1799 52.7589C79.6671 52.5272 80.3941 52.5911 80.8334 52.9027ZM56.9332 52.9106C57.9956 53.2621 59.05 54.1248 59.5453 55.0514C60.1764 56.2496 60.4639 58.1109 60.2962 60.004C60.1204 62.033 59.7051 64.006 58.9302 66.5143C58.1314 69.1024 57.8998 70.2527 57.8359 71.994C57.7879 73.2881 57.8678 74.1189 58.1394 75.1413C58.4989 76.4833 59.3616 77.8812 60.3201 78.68C61.2308 79.4389 61.6701 79.4708 62.6207 78.8638C64.2662 77.8013 65.784 77.2981 67.3017 77.2981C68.8434 77.3061 70.0336 77.7135 71.7191 78.8158C72.7016 79.4629 72.9971 79.4549 73.8598 78.7919C74.7865 78.0729 75.6172 76.8508 76.0566 75.5327C76.408 74.4943 76.5278 73.5118 76.4799 72.0659C76.416 70.2686 76.2003 69.1423 75.3856 66.5143C74.2752 62.9436 73.8119 59.988 74.0276 57.8952C74.1953 56.1618 74.6187 55.0434 75.4255 54.1568C76.0246 53.5018 76.9432 52.9905 77.9737 52.7429L78.2053 52.687L77.9417 52.9905C77.6222 53.35 77.2787 54.0929 77.1509 54.676C77.0551 55.1233 77.0471 56.1698 77.1349 56.5692C77.1829 56.7689 77.119 56.9047 76.7835 57.4079C75.6412 59.1014 75.4894 61.6495 76.3441 64.717C76.7036 65.9711 77.071 66.9296 77.8618 68.5911C79.3237 71.6825 80.0106 73.8393 80.2662 76.1878C80.3701 77.1304 80.3142 78.6001 80.1464 79.375C79.8828 80.5812 79.2997 81.7315 78.5169 82.5622L78.1334 82.9696H67.1579H56.1823L55.7989 82.5622C53.8019 80.4374 53.4504 77.0744 54.7764 72.7449C55.1679 71.4748 55.6392 70.3006 56.4459 68.6151C57.4764 66.4504 57.9477 65.0924 58.3072 63.3111C58.5548 62.041 58.5628 60.2277 58.3072 59.2292C58.1234 58.4863 57.7959 57.7514 57.3805 57.1683C57.1729 56.8807 57.1329 56.7609 57.1808 56.5692C57.2687 56.1777 57.2607 55.1313 57.1649 54.676C57.0371 54.1009 56.7735 53.5337 56.422 53.0704L56.1344 52.695L56.3501 52.7429C56.4779 52.7748 56.7335 52.8467 56.9332 52.9106ZM73.3965 57.6795C73.4125 57.6955 73.4205 58.1827 73.4045 58.7579L73.3806 59.8043H67.1579H60.9352L60.9113 58.7579C60.8953 58.1827 60.9033 57.6955 60.9192 57.6795C60.9672 57.6396 73.3486 57.6396 73.3965 57.6795ZM61.2468 69.5098C61.2468 75.389 61.2228 78.5762 61.1669 78.5762C61.0231 78.5762 59.9447 77.4978 59.6332 77.0265C58.2912 75.0535 58.0276 72.1378 58.8903 68.7509C58.9941 68.3355 59.2657 67.4089 59.4814 66.698C60.1284 64.6051 60.5598 62.7759 60.7675 61.1783C60.8633 60.4833 60.8793 60.4434 61.055 60.4434H61.2468V69.5098ZM64.0426 68.9346V77.4339L63.6272 77.6256C63.3955 77.7295 62.9083 78.009 62.5408 78.2327C62.1734 78.4644 61.8538 78.6561 61.8379 78.6561C61.8219 78.6561 61.8059 74.5582 61.8059 69.5497V60.4434H62.9242H64.0426V68.9346ZM66.8384 68.5832V76.715L66.3671 76.7709C66.1035 76.8028 65.6402 76.8987 65.3286 76.9786C65.0171 77.0664 64.7295 77.1383 64.6816 77.1383C64.6257 77.1383 64.6017 74.3745 64.6017 68.7908V60.4434H65.72H66.8384V68.5832ZM69.3945 68.711C69.3945 73.2562 69.3866 76.9786 69.3706 76.9786C69.3626 76.9786 69.099 76.9227 68.7954 76.8588C68.4839 76.7949 68.0685 76.7389 67.8608 76.7389H67.4774V68.5911V60.4434H68.436H69.3945V68.711ZM72.2702 69.4299C72.2702 74.3745 72.2463 78.4164 72.2223 78.4164C72.1983 78.4164 72.0146 78.3046 71.8229 78.1688C71.6232 78.033 71.1359 77.7534 70.7285 77.5457L69.9936 77.1703L69.9697 68.8068L69.9537 60.4434H71.112H72.2702V69.4299ZM73.5403 61.1783C73.756 62.7998 74.2832 64.9806 74.9862 67.2172C76.3281 71.5068 76.2323 74.7579 74.6826 77.0345C74.3232 77.5617 73.2448 78.6161 72.9892 78.68L72.8294 78.72V69.5817V60.4434H73.1409H73.4445L73.5403 61.1783ZM79.771 83.7604C80.0745 83.9761 80.3301 84.4793 80.3381 84.8548C80.3381 85.2622 80.0186 85.7734 79.6192 85.9811L79.2757 86.1648H67.1579H55.0401L54.6966 85.9811C54.2972 85.7734 53.9776 85.2622 53.9776 84.8548C53.9856 84.3435 54.385 83.7684 54.8563 83.5847C54.9202 83.5607 60.4959 83.5447 67.2378 83.5527L79.4994 83.5687L79.771 83.7604ZM81.5363 86.8997C82.0156 87.1473 82.2553 87.5148 82.2553 88.018C82.2553 88.5133 82.0875 88.8728 81.752 89.1284L81.4964 89.3201L67.2537 89.344C54.2173 89.36 52.9791 89.352 52.7315 89.2322C52.3161 89.0325 52.1084 88.689 52.0765 88.1219C52.0366 87.5308 52.2442 87.1713 52.7794 86.8997L53.1309 86.724H67.1579H74.1714H81.1849L81.5363 86.8997Z"/>
<path d="M56.9332 52.9106C57.9956 53.2621 59.05 54.1248 59.5453 55.0514C60.1764 56.2496 60.4639 58.1109 60.2962 60.004C60.1204 62.033 59.7051 64.006 58.9302 66.5143C58.1314 69.1024 57.8998 70.2527 57.8359 71.994C57.7879 73.2881 57.8678 74.1189 58.1394 75.1413C58.4989 76.4833 59.3616 77.8812 60.3201 78.68C61.2308 79.4389 61.6701 79.4708 62.6207 78.8638C64.2662 77.8013 65.784 77.2981 67.3017 77.2981C68.8434 77.3061 70.0336 77.7135 71.7191 78.8158C72.7016 79.4629 72.9971 79.4549 73.8598 78.7919C74.7865 78.0729 75.6172 76.8508 76.0566 75.5327C76.408 74.4943 76.5278 73.5118 76.4799 72.0659C76.416 70.2686 76.2003 69.1423 75.3856 66.5143C74.2752 62.9436 73.8119 59.988 74.0276 57.8952C74.1953 56.1618 74.6187 55.0434 75.4255 54.1568C76.0246 53.5018 76.9432 52.9905 77.9737 52.7429L78.2053 52.687L77.9417 52.9905C77.6222 53.35 77.2787 54.0929 77.1509 54.676C77.0551 55.1233 77.0471 56.1698 77.1349 56.5692C77.1829 56.7689 77.119 56.9047 76.7835 57.4079C75.6412 59.1014 75.4894 61.6495 76.3441 64.717C76.7036 65.9711 77.071 66.9296 77.8618 68.5911C79.3237 71.6825 80.0106 73.8393 80.2662 76.1878C80.3701 77.1304 80.3142 78.6001 80.1464 79.375C79.8828 80.5812 79.2997 81.7315 78.5169 82.5622L78.1334 82.9696H67.1579H56.1823L55.7989 82.5622C53.8019 80.4374 53.4504 77.0744 54.7764 72.7449C55.1679 71.4748 55.6392 70.3006 56.4459 68.6151C57.4764 66.4504 57.9477 65.0924 58.3072 63.3111C58.5548 62.041 58.5628 60.2277 58.3072 59.2292C58.1234 58.4863 57.7959 57.7514 57.3805 57.1683C57.1729 56.8807 57.1329 56.7609 57.1808 56.5692C57.2687 56.1777 57.2607 55.1313 57.1649 54.676C57.0371 54.1009 56.7735 53.5337 56.422 53.0704L56.1344 52.695L56.3501 52.7429C56.4779 52.7748 56.7335 52.8467 56.9332 52.9106Z"/>
</mask>
<path d="M53.9537 52.0559C52.9552 52.3115 52.1484 53.2062 51.7809 54.4763C51.6212 55.0355 51.6132 56.2417 51.765 56.8088C52.1724 58.3026 53.2427 59.2851 54.4569 59.2771C55.3356 59.2771 56.0386 58.8458 56.6137 57.9511L56.9093 57.5038L57.1569 57.9112C57.2927 58.1428 57.5004 58.6141 57.6282 58.9656C57.8439 59.5807 57.8518 59.6605 57.8518 61.1623C57.8439 62.4803 57.8199 62.8478 57.6601 63.5587C57.3885 64.8208 56.8453 66.3705 56.1664 67.8163C54.2013 72.002 53.5463 74.1987 53.4424 76.9386C53.3546 79.2552 53.7939 80.9087 54.8883 82.3945C55.088 82.6661 55.2557 82.9057 55.2557 82.9297C55.2557 82.9536 55.1599 82.9696 55.0401 82.9696C54.7125 82.9696 54.1694 83.2731 53.8738 83.6166C53.3626 84.2077 53.2747 84.9826 53.6421 85.7175L53.8738 86.1648H53.4744C52.9152 86.1648 52.5078 86.3086 52.1404 86.6281C51.2697 87.371 51.2138 88.5932 52.0206 89.4C52.6596 90.047 51.4694 89.9991 67.1579 89.9991C82.8464 89.9991 81.6562 90.047 82.2952 89.4C83.102 88.5932 83.0461 87.371 82.1754 86.6281C81.8079 86.3086 81.4005 86.1648 80.8414 86.1648H80.442L80.6736 85.7175C81.0411 84.9746 80.9612 84.2237 80.442 83.6086C80.1304 83.2412 79.6352 82.9776 79.2837 82.9696C79.1559 82.9696 79.0601 82.9536 79.0601 82.9297C79.0601 82.9057 79.2278 82.6661 79.4275 82.3945C80.1384 81.4199 80.6337 80.1978 80.8174 78.9037C80.9532 77.9931 80.8733 75.9961 80.6656 74.8538C80.3461 73.1204 79.739 71.2831 78.8843 69.4299C77.734 66.9456 77.5104 66.4184 77.1829 65.4359C76.6716 63.9182 76.4959 62.9995 76.448 61.5936C76.3841 59.9241 76.5918 58.8617 77.1589 57.9112L77.4065 57.5038L77.7021 57.9511C78.2772 58.8378 78.9722 59.2691 79.8589 59.2771C80.8254 59.2851 81.744 58.6461 82.2393 57.6236C82.5668 56.9446 82.6706 56.4573 82.6627 55.6026C82.6627 53.7094 81.5683 52.2077 80.0586 52.016C79.5793 51.9521 78.1894 52.0879 77.5104 52.2636C76.0965 52.6311 74.8264 53.6535 74.1953 54.9316C74.0116 55.3071 73.78 55.9461 73.6841 56.3455L73.5084 57.0884H67.1579H60.8074L60.6317 56.3455C60.1843 54.4923 59.0341 53.0944 57.4444 52.4713C56.5658 52.1198 54.6167 51.8962 53.9537 52.0559ZM55.1359 52.7669C55.5753 52.9586 56.1664 53.6455 56.39 54.1967C56.5418 54.5801 56.5658 54.8038 56.5738 55.6106C56.5738 56.681 56.5019 57.0085 56.1184 57.6396C55.743 58.2626 55.2078 58.6301 54.6007 58.67C53.9856 58.7179 53.5223 58.5342 53.107 58.0869C52.5318 57.4638 52.2203 56.6251 52.2203 55.6905C52.2203 53.5816 53.6901 52.1039 55.1359 52.7669ZM80.8334 52.9027C81.5763 53.4219 82.0156 54.3006 82.0795 55.4029C82.1275 56.1857 82.0076 56.7848 81.6961 57.4079C81.2727 58.2387 80.6257 58.686 79.8509 58.686C78.8923 58.686 78.0616 57.8472 77.782 56.6011C77.6382 55.9541 77.7101 54.7639 77.9337 54.1967C78.1494 53.6455 78.7325 52.9666 79.1799 52.7589C79.6671 52.5272 80.3941 52.5911 80.8334 52.9027ZM56.9332 52.9106C57.9956 53.2621 59.05 54.1248 59.5453 55.0514C60.1764 56.2496 60.4639 58.1109 60.2962 60.004C60.1204 62.033 59.7051 64.006 58.9302 66.5143C58.1314 69.1024 57.8998 70.2527 57.8359 71.994C57.7879 73.2881 57.8678 74.1189 58.1394 75.1413C58.4989 76.4833 59.3616 77.8812 60.3201 78.68C61.2308 79.4389 61.6701 79.4708 62.6207 78.8638C64.2662 77.8013 65.784 77.2981 67.3017 77.2981C68.8434 77.3061 70.0336 77.7135 71.7191 78.8158C72.7016 79.4629 72.9971 79.4549 73.8598 78.7919C74.7865 78.0729 75.6172 76.8508 76.0566 75.5327C76.408 74.4943 76.5278 73.5118 76.4799 72.0659C76.416 70.2686 76.2003 69.1423 75.3856 66.5143C74.2752 62.9436 73.8119 59.988 74.0276 57.8952C74.1953 56.1618 74.6187 55.0434 75.4255 54.1568C76.0246 53.5018 76.9432 52.9905 77.9737 52.7429L78.2053 52.687L77.9417 52.9905C77.6222 53.35 77.2787 54.0929 77.1509 54.676C77.0551 55.1233 77.0471 56.1698 77.1349 56.5692C77.1829 56.7689 77.119 56.9047 76.7835 57.4079C75.6412 59.1014 75.4894 61.6495 76.3441 64.717C76.7036 65.9711 77.071 66.9296 77.8618 68.5911C79.3237 71.6825 80.0106 73.8393 80.2662 76.1878C80.3701 77.1304 80.3142 78.6001 80.1464 79.375C79.8828 80.5812 79.2997 81.7315 78.5169 82.5622L78.1334 82.9696H67.1579H56.1823L55.7989 82.5622C53.8019 80.4374 53.4504 77.0744 54.7764 72.7449C55.1679 71.4748 55.6392 70.3006 56.4459 68.6151C57.4764 66.4504 57.9477 65.0924 58.3072 63.3111C58.5548 62.041 58.5628 60.2277 58.3072 59.2292C58.1234 58.4863 57.7959 57.7514 57.3805 57.1683C57.1729 56.8807 57.1329 56.7609 57.1808 56.5692C57.2687 56.1777 57.2607 55.1313 57.1649 54.676C57.0371 54.1009 56.7735 53.5337 56.422 53.0704L56.1344 52.695L56.3501 52.7429C56.4779 52.7748 56.7335 52.8467 56.9332 52.9106ZM73.3965 57.6795C73.4125 57.6955 73.4205 58.1827 73.4045 58.7579L73.3806 59.8043H67.1579H60.9352L60.9113 58.7579C60.8953 58.1827 60.9033 57.6955 60.9192 57.6795C60.9672 57.6396 73.3486 57.6396 73.3965 57.6795ZM61.2468 69.5098C61.2468 75.389 61.2228 78.5762 61.1669 78.5762C61.0231 78.5762 59.9447 77.4978 59.6332 77.0265C58.2912 75.0535 58.0276 72.1378 58.8903 68.7509C58.9941 68.3355 59.2657 67.4089 59.4814 66.698C60.1284 64.6051 60.5598 62.7759 60.7675 61.1783C60.8633 60.4833 60.8793 60.4434 61.055 60.4434H61.2468V69.5098ZM64.0426 68.9346V77.4339L63.6272 77.6256C63.3955 77.7295 62.9083 78.009 62.5408 78.2327C62.1734 78.4644 61.8538 78.6561 61.8379 78.6561C61.8219 78.6561 61.8059 74.5582 61.8059 69.5497V60.4434H62.9242H64.0426V68.9346ZM66.8384 68.5832V76.715L66.3671 76.7709C66.1035 76.8028 65.6402 76.8987 65.3286 76.9786C65.0171 77.0664 64.7295 77.1383 64.6816 77.1383C64.6257 77.1383 64.6017 74.3745 64.6017 68.7908V60.4434H65.72H66.8384V68.5832ZM69.3945 68.711C69.3945 73.2562 69.3866 76.9786 69.3706 76.9786C69.3626 76.9786 69.099 76.9227 68.7954 76.8588C68.4839 76.7949 68.0685 76.7389 67.8608 76.7389H67.4774V68.5911V60.4434H68.436H69.3945V68.711ZM72.2702 69.4299C72.2702 74.3745 72.2463 78.4164 72.2223 78.4164C72.1983 78.4164 72.0146 78.3046 71.8229 78.1688C71.6232 78.033 71.1359 77.7534 70.7285 77.5457L69.9936 77.1703L69.9697 68.8068L69.9537 60.4434H71.112H72.2702V69.4299ZM73.5403 61.1783C73.756 62.7998 74.2832 64.9806 74.9862 67.2172C76.3281 71.5068 76.2323 74.7579 74.6826 77.0345C74.3232 77.5617 73.2448 78.6161 72.9892 78.68L72.8294 78.72V69.5817V60.4434H73.1409H73.4445L73.5403 61.1783ZM79.771 83.7604C80.0745 83.9761 80.3301 84.4793 80.3381 84.8548C80.3381 85.2622 80.0186 85.7734 79.6192 85.9811L79.2757 86.1648H67.1579H55.0401L54.6966 85.9811C54.2972 85.7734 53.9776 85.2622 53.9776 84.8548C53.9856 84.3435 54.385 83.7684 54.8563 83.5847C54.9202 83.5607 60.4959 83.5447 67.2378 83.5527L79.4994 83.5687L79.771 83.7604ZM81.5363 86.8997C82.0156 87.1473 82.2553 87.5148 82.2553 88.018C82.2553 88.5133 82.0875 88.8728 81.752 89.1284L81.4964 89.3201L67.2537 89.344C54.2173 89.36 52.9791 89.352 52.7315 89.2322C52.3161 89.0325 52.1084 88.689 52.0765 88.1219C52.0366 87.5308 52.2442 87.1713 52.7794 86.8997L53.1309 86.724H67.1579H74.1714H81.1849L81.5363 86.8997Z" fill="#DFAD30"/>
<path d="M56.9332 52.9106C57.9956 53.2621 59.05 54.1248 59.5453 55.0514C60.1764 56.2496 60.4639 58.1109 60.2962 60.004C60.1204 62.033 59.7051 64.006 58.9302 66.5143C58.1314 69.1024 57.8998 70.2527 57.8359 71.994C57.7879 73.2881 57.8678 74.1189 58.1394 75.1413C58.4989 76.4833 59.3616 77.8812 60.3201 78.68C61.2308 79.4389 61.6701 79.4708 62.6207 78.8638C64.2662 77.8013 65.784 77.2981 67.3017 77.2981C68.8434 77.3061 70.0336 77.7135 71.7191 78.8158C72.7016 79.4629 72.9971 79.4549 73.8598 78.7919C74.7865 78.0729 75.6172 76.8508 76.0566 75.5327C76.408 74.4943 76.5278 73.5118 76.4799 72.0659C76.416 70.2686 76.2003 69.1423 75.3856 66.5143C74.2752 62.9436 73.8119 59.988 74.0276 57.8952C74.1953 56.1618 74.6187 55.0434 75.4255 54.1568C76.0246 53.5018 76.9432 52.9905 77.9737 52.7429L78.2053 52.687L77.9417 52.9905C77.6222 53.35 77.2787 54.0929 77.1509 54.676C77.0551 55.1233 77.0471 56.1698 77.1349 56.5692C77.1829 56.7689 77.119 56.9047 76.7835 57.4079C75.6412 59.1014 75.4894 61.6495 76.3441 64.717C76.7036 65.9711 77.071 66.9296 77.8618 68.5911C79.3237 71.6825 80.0106 73.8393 80.2662 76.1878C80.3701 77.1304 80.3142 78.6001 80.1464 79.375C79.8828 80.5812 79.2997 81.7315 78.5169 82.5622L78.1334 82.9696H67.1579H56.1823L55.7989 82.5622C53.8019 80.4374 53.4504 77.0744 54.7764 72.7449C55.1679 71.4748 55.6392 70.3006 56.4459 68.6151C57.4764 66.4504 57.9477 65.0924 58.3072 63.3111C58.5548 62.041 58.5628 60.2277 58.3072 59.2292C58.1234 58.4863 57.7959 57.7514 57.3805 57.1683C57.1729 56.8807 57.1329 56.7609 57.1808 56.5692C57.2687 56.1777 57.2607 55.1313 57.1649 54.676C57.0371 54.1009 56.7735 53.5337 56.422 53.0704L56.1344 52.695L56.3501 52.7429C56.4779 52.7748 56.7335 52.8467 56.9332 52.9106Z" fill="#DFAD30"/>
<path d="M53.9537 52.0559C52.9552 52.3115 52.1484 53.2062 51.7809 54.4763C51.6212 55.0355 51.6132 56.2417 51.765 56.8088C52.1724 58.3026 53.2427 59.2851 54.4569 59.2771C55.3356 59.2771 56.0386 58.8458 56.6137 57.9511L56.9093 57.5038L57.1569 57.9112C57.2927 58.1428 57.5004 58.6141 57.6282 58.9656C57.8439 59.5807 57.8518 59.6605 57.8518 61.1623C57.8439 62.4803 57.8199 62.8478 57.6601 63.5587C57.3885 64.8208 56.8453 66.3705 56.1664 67.8163C54.2013 72.002 53.5463 74.1987 53.4424 76.9386C53.3546 79.2552 53.7939 80.9087 54.8883 82.3945C55.088 82.6661 55.2557 82.9057 55.2557 82.9297C55.2557 82.9536 55.1599 82.9696 55.0401 82.9696C54.7125 82.9696 54.1694 83.2731 53.8738 83.6166C53.3626 84.2077 53.2747 84.9826 53.6421 85.7175L53.8738 86.1648H53.4744C52.9152 86.1648 52.5078 86.3086 52.1404 86.6281C51.2697 87.371 51.2138 88.5932 52.0206 89.4C52.6596 90.047 51.4694 89.9991 67.1579 89.9991C82.8464 89.9991 81.6562 90.047 82.2952 89.4C83.102 88.5932 83.0461 87.371 82.1754 86.6281C81.8079 86.3086 81.4005 86.1648 80.8414 86.1648H80.442L80.6736 85.7175C81.0411 84.9746 80.9612 84.2237 80.442 83.6086C80.1304 83.2412 79.6352 82.9776 79.2837 82.9696C79.1559 82.9696 79.0601 82.9536 79.0601 82.9297C79.0601 82.9057 79.2278 82.6661 79.4275 82.3945C80.1384 81.4199 80.6337 80.1978 80.8174 78.9037C80.9532 77.9931 80.8733 75.9961 80.6656 74.8538C80.3461 73.1204 79.739 71.2831 78.8843 69.4299C77.734 66.9456 77.5104 66.4184 77.1829 65.4359C76.6716 63.9182 76.4959 62.9995 76.448 61.5936C76.3841 59.9241 76.5918 58.8617 77.1589 57.9112L77.4065 57.5038L77.7021 57.9511C78.2772 58.8378 78.9722 59.2691 79.8589 59.2771C80.8254 59.2851 81.744 58.6461 82.2393 57.6236C82.5668 56.9446 82.6706 56.4573 82.6627 55.6026C82.6627 53.7094 81.5683 52.2077 80.0586 52.016C79.5793 51.9521 78.1894 52.0879 77.5104 52.2636C76.0965 52.6311 74.8264 53.6535 74.1953 54.9316C74.0116 55.3071 73.78 55.9461 73.6841 56.3455L73.5084 57.0884H67.1579H60.8074L60.6317 56.3455C60.1843 54.4923 59.0341 53.0944 57.4444 52.4713C56.5658 52.1198 54.6167 51.8962 53.9537 52.0559ZM55.1359 52.7669C55.5753 52.9586 56.1664 53.6455 56.39 54.1967C56.5418 54.5801 56.5658 54.8038 56.5738 55.6106C56.5738 56.681 56.5019 57.0085 56.1184 57.6396C55.743 58.2626 55.2078 58.6301 54.6007 58.67C53.9856 58.7179 53.5223 58.5342 53.107 58.0869C52.5318 57.4638 52.2203 56.6251 52.2203 55.6905C52.2203 53.5816 53.6901 52.1039 55.1359 52.7669ZM80.8334 52.9027C81.5763 53.4219 82.0156 54.3006 82.0795 55.4029C82.1275 56.1857 82.0076 56.7848 81.6961 57.4079C81.2727 58.2387 80.6257 58.686 79.8509 58.686C78.8923 58.686 78.0616 57.8472 77.782 56.6011C77.6382 55.9541 77.7101 54.7639 77.9337 54.1967C78.1494 53.6455 78.7325 52.9666 79.1799 52.7589C79.6671 52.5272 80.3941 52.5911 80.8334 52.9027ZM56.9332 52.9106C57.9956 53.2621 59.05 54.1248 59.5453 55.0514C60.1764 56.2496 60.4639 58.1109 60.2962 60.004C60.1204 62.033 59.7051 64.006 58.9302 66.5143C58.1314 69.1024 57.8998 70.2527 57.8359 71.994C57.7879 73.2881 57.8678 74.1189 58.1394 75.1413C58.4989 76.4833 59.3616 77.8812 60.3201 78.68C61.2308 79.4389 61.6701 79.4708 62.6207 78.8638C64.2662 77.8013 65.784 77.2981 67.3017 77.2981C68.8434 77.3061 70.0336 77.7135 71.7191 78.8158C72.7016 79.4629 72.9971 79.4549 73.8598 78.7919C74.7865 78.0729 75.6172 76.8508 76.0566 75.5327C76.408 74.4943 76.5278 73.5118 76.4799 72.0659C76.416 70.2686 76.2003 69.1423 75.3856 66.5143C74.2752 62.9436 73.8119 59.988 74.0276 57.8952C74.1953 56.1618 74.6187 55.0434 75.4255 54.1568C76.0246 53.5018 76.9432 52.9905 77.9737 52.7429L78.2053 52.687L77.9417 52.9905C77.6222 53.35 77.2787 54.0929 77.1509 54.676C77.0551 55.1233 77.0471 56.1698 77.1349 56.5692C77.1829 56.7689 77.119 56.9047 76.7835 57.4079C75.6412 59.1014 75.4894 61.6495 76.3441 64.717C76.7036 65.9711 77.071 66.9296 77.8618 68.5911C79.3237 71.6825 80.0106 73.8393 80.2662 76.1878C80.3701 77.1304 80.3142 78.6001 80.1464 79.375C79.8828 80.5812 79.2997 81.7315 78.5169 82.5622L78.1334 82.9696H67.1579H56.1823L55.7989 82.5622C53.8019 80.4374 53.4504 77.0744 54.7764 72.7449C55.1679 71.4748 55.6392 70.3006 56.4459 68.6151C57.4764 66.4504 57.9477 65.0924 58.3072 63.3111C58.5548 62.041 58.5628 60.2277 58.3072 59.2292C58.1234 58.4863 57.7959 57.7514 57.3805 57.1683C57.1729 56.8807 57.1329 56.7609 57.1808 56.5692C57.2687 56.1777 57.2607 55.1313 57.1649 54.676C57.0371 54.1009 56.7735 53.5337 56.422 53.0704L56.1344 52.695L56.3501 52.7429C56.4779 52.7748 56.7335 52.8467 56.9332 52.9106ZM73.3965 57.6795C73.4125 57.6955 73.4205 58.1827 73.4045 58.7579L73.3806 59.8043H67.1579H60.9352L60.9113 58.7579C60.8953 58.1827 60.9033 57.6955 60.9192 57.6795C60.9672 57.6396 73.3486 57.6396 73.3965 57.6795ZM61.2468 69.5098C61.2468 75.389 61.2228 78.5762 61.1669 78.5762C61.0231 78.5762 59.9447 77.4978 59.6332 77.0265C58.2912 75.0535 58.0276 72.1378 58.8903 68.7509C58.9941 68.3355 59.2657 67.4089 59.4814 66.698C60.1284 64.6051 60.5598 62.7759 60.7675 61.1783C60.8633 60.4833 60.8793 60.4434 61.055 60.4434H61.2468V69.5098ZM64.0426 68.9346V77.4339L63.6272 77.6256C63.3955 77.7295 62.9083 78.009 62.5408 78.2327C62.1734 78.4644 61.8538 78.6561 61.8379 78.6561C61.8219 78.6561 61.8059 74.5582 61.8059 69.5497V60.4434H62.9242H64.0426V68.9346ZM66.8384 68.5832V76.715L66.3671 76.7709C66.1035 76.8028 65.6402 76.8987 65.3286 76.9786C65.0171 77.0664 64.7295 77.1383 64.6816 77.1383C64.6257 77.1383 64.6017 74.3745 64.6017 68.7908V60.4434H65.72H66.8384V68.5832ZM69.3945 68.711C69.3945 73.2562 69.3866 76.9786 69.3706 76.9786C69.3626 76.9786 69.099 76.9227 68.7954 76.8588C68.4839 76.7949 68.0685 76.7389 67.8608 76.7389H67.4774V68.5911V60.4434H68.436H69.3945V68.711ZM72.2702 69.4299C72.2702 74.3745 72.2463 78.4164 72.2223 78.4164C72.1983 78.4164 72.0146 78.3046 71.8229 78.1688C71.6232 78.033 71.1359 77.7534 70.7285 77.5457L69.9936 77.1703L69.9697 68.8068L69.9537 60.4434H71.112H72.2702V69.4299ZM73.5403 61.1783C73.756 62.7998 74.2832 64.9806 74.9862 67.2172C76.3281 71.5068 76.2323 74.7579 74.6826 77.0345C74.3232 77.5617 73.2448 78.6161 72.9892 78.68L72.8294 78.72V69.5817V60.4434H73.1409H73.4445L73.5403 61.1783ZM79.771 83.7604C80.0745 83.9761 80.3301 84.4793 80.3381 84.8548C80.3381 85.2622 80.0186 85.7734 79.6192 85.9811L79.2757 86.1648H67.1579H55.0401L54.6966 85.9811C54.2972 85.7734 53.9776 85.2622 53.9776 84.8548C53.9856 84.3435 54.385 83.7684 54.8563 83.5847C54.9202 83.5607 60.4959 83.5447 67.2378 83.5527L79.4994 83.5687L79.771 83.7604ZM81.5363 86.8997C82.0156 87.1473 82.2553 87.5148 82.2553 88.018C82.2553 88.5133 82.0875 88.8728 81.752 89.1284L81.4964 89.3201L67.2537 89.344C54.2173 89.36 52.9791 89.352 52.7315 89.2322C52.3161 89.0325 52.1084 88.689 52.0765 88.1219C52.0366 87.5308 52.2442 87.1713 52.7794 86.8997L53.1309 86.724H67.1579H74.1714H81.1849L81.5363 86.8997Z" stroke="black" stroke-width="0.16" mask="url(#path-25-inside-1_876_39248)"/>
<path d="M56.9332 52.9106C57.9956 53.2621 59.05 54.1248 59.5453 55.0514C60.1764 56.2496 60.4639 58.1109 60.2962 60.004C60.1204 62.033 59.7051 64.006 58.9302 66.5143C58.1314 69.1024 57.8998 70.2527 57.8359 71.994C57.7879 73.2881 57.8678 74.1189 58.1394 75.1413C58.4989 76.4833 59.3616 77.8812 60.3201 78.68C61.2308 79.4389 61.6701 79.4708 62.6207 78.8638C64.2662 77.8013 65.784 77.2981 67.3017 77.2981C68.8434 77.3061 70.0336 77.7135 71.7191 78.8158C72.7016 79.4629 72.9971 79.4549 73.8598 78.7919C74.7865 78.0729 75.6172 76.8508 76.0566 75.5327C76.408 74.4943 76.5278 73.5118 76.4799 72.0659C76.416 70.2686 76.2003 69.1423 75.3856 66.5143C74.2752 62.9436 73.8119 59.988 74.0276 57.8952C74.1953 56.1618 74.6187 55.0434 75.4255 54.1568C76.0246 53.5018 76.9432 52.9905 77.9737 52.7429L78.2053 52.687L77.9417 52.9905C77.6222 53.35 77.2787 54.0929 77.1509 54.676C77.0551 55.1233 77.0471 56.1698 77.1349 56.5692C77.1829 56.7689 77.119 56.9047 76.7835 57.4079C75.6412 59.1014 75.4894 61.6495 76.3441 64.717C76.7036 65.9711 77.071 66.9296 77.8618 68.5911C79.3237 71.6825 80.0106 73.8393 80.2662 76.1878C80.3701 77.1304 80.3142 78.6001 80.1464 79.375C79.8828 80.5812 79.2997 81.7315 78.5169 82.5622L78.1334 82.9696H67.1579H56.1823L55.7989 82.5622C53.8019 80.4374 53.4504 77.0744 54.7764 72.7449C55.1679 71.4748 55.6392 70.3006 56.4459 68.6151C57.4764 66.4504 57.9477 65.0924 58.3072 63.3111C58.5548 62.041 58.5628 60.2277 58.3072 59.2292C58.1234 58.4863 57.7959 57.7514 57.3805 57.1683C57.1729 56.8807 57.1329 56.7609 57.1808 56.5692C57.2687 56.1777 57.2607 55.1313 57.1649 54.676C57.0371 54.1009 56.7735 53.5337 56.422 53.0704L56.1344 52.695L56.3501 52.7429C56.4779 52.7748 56.7335 52.8467 56.9332 52.9106Z" stroke="black" stroke-width="0.16" mask="url(#path-25-inside-1_876_39248)"/>
<path d="M53.8976 53.8293C52.7074 54.4444 52.5237 56.3296 53.5621 57.2642C54.6325 58.2307 56.0544 57.1843 55.9585 55.4988C55.8866 54.1728 54.8562 53.3341 53.8976 53.8293ZM55 54.5722C55.5751 55.2192 55.5272 56.2657 54.9041 56.8408C54.297 57.4 53.4982 56.729 53.4982 55.6506C53.4982 54.8278 53.8816 54.2926 54.4648 54.2926C54.7044 54.2926 54.8082 54.3485 55 54.5722Z" fill="#DFAD30"/>
<path d="M79.4993 53.9171C78.341 54.4523 78.0694 56.2896 78.996 57.2961C79.707 58.0709 80.7135 57.9032 81.2567 56.9206C81.4723 56.5372 81.4963 56.4174 81.4963 55.8103C81.4963 55.2032 81.4723 55.0834 81.2567 54.7C80.8652 53.989 80.0984 53.6455 79.4993 53.9171ZM80.5697 54.7399C81.1129 55.355 81.0969 56.3455 80.5377 56.9047C79.5233 57.9191 78.4289 55.8263 79.3875 54.7319C79.7629 54.3086 80.1942 54.3086 80.5697 54.7399Z" fill="#DFAD30"/>
<path d="M64.2064 55.6132L64.2064 55.6132L64.2061 55.6134C64.1288 55.6576 64.0935 55.7077 64.0837 55.754C64.0739 55.8002 64.0877 55.8513 64.1269 55.9015C64.2062 56.0031 64.3826 56.0899 64.6096 56.0899C64.8769 56.0899 65.0654 56.0226 65.1542 55.9321C65.1974 55.888 65.2162 55.8395 65.2123 55.7892C65.2082 55.738 65.1801 55.6785 65.1165 55.615C65.1073 55.6057 65.09 55.5951 65.0628 55.5847C65.0362 55.5746 65.0028 55.5657 64.9641 55.5585C64.8866 55.5439 64.791 55.5363 64.6923 55.5358C64.5937 55.5353 64.4932 55.5419 64.4062 55.5554C64.3179 55.5691 64.2476 55.5892 64.2064 55.6132Z" fill="#DFAD30" stroke="black" stroke-width="0.08"/>
<path d="M66.4472 55.6112C66.4447 55.6121 66.4434 55.6127 66.4431 55.6129L66.4431 55.6129L66.4414 55.6139C66.28 55.7013 66.2834 55.9243 66.4486 56.0144C66.4547 56.0172 66.4727 56.0222 66.5083 56.0276C66.5428 56.0329 66.5891 56.038 66.6468 56.0428C66.7622 56.0525 66.9213 56.0609 67.1187 56.0679C67.5135 56.0819 68.0601 56.0899 68.7149 56.0899C69.3697 56.0899 69.9163 56.0819 70.3111 56.0679C70.5085 56.0609 70.6676 56.0525 70.7829 56.0428C70.8407 56.038 70.887 56.0329 70.9215 56.0276C70.9559 56.0224 70.9739 56.0175 70.9805 56.0147C71.014 55.9942 71.0471 55.9612 71.0718 55.9233C71.0971 55.8845 71.1112 55.8441 71.1112 55.8103C71.1112 55.7766 71.0971 55.7362 71.0718 55.6974C71.0471 55.6595 71.0141 55.6265 70.9806 55.606C70.978 55.6049 70.9717 55.6029 70.9601 55.6003C70.9475 55.5976 70.931 55.5948 70.9105 55.5921C70.8696 55.5866 70.8148 55.5814 70.7478 55.5765C70.6139 55.5669 70.4333 55.5588 70.2213 55.5524C69.7974 55.5395 69.2494 55.5333 68.7019 55.5338C68.1545 55.5343 67.6081 55.5415 67.1871 55.5556C66.9766 55.5627 66.7979 55.5714 66.6664 55.5818C66.6005 55.5871 66.5471 55.5927 66.5077 55.5986C66.4879 55.6015 66.4722 55.6045 66.4606 55.6074C66.4548 55.6088 66.4504 55.6101 66.4472 55.6112Z" fill="#DFAD30" stroke="black" stroke-width="0.08"/>
<path d="M83.981 57.5162L83.9808 57.5163C83.5462 57.7103 83.1944 58.1624 83.0849 58.6704L83.085 58.6704L83.0848 58.671C82.9445 59.2791 83.1307 59.8235 83.5995 60.2376C83.9134 60.5122 84.2568 60.6618 84.6053 60.686C84.9537 60.7103 85.3104 60.6096 85.6515 60.3783C86.5478 59.7703 86.6189 58.4997 85.7835 57.7736L85.7835 57.7736L85.7829 57.7731C85.7043 57.7024 85.6098 57.6275 85.5212 57.5655C85.4316 57.5028 85.3515 57.4556 85.301 57.4376L85.301 57.4376L85.3004 57.4374C85.1484 57.3804 84.9054 57.3601 84.6538 57.3749C84.4027 57.3898 84.1505 57.4392 83.981 57.5162ZM85.2288 57.9714L85.2289 57.9715C86.2533 58.5002 85.9828 60.0317 84.8312 60.1477L84.8312 60.1477L84.8308 60.1477C84.466 60.1805 84.151 60.0823 83.9268 59.881C83.7025 59.6797 83.573 59.3787 83.573 59.0135C83.573 58.1462 84.4661 57.5818 85.2288 57.9714Z" fill="#DFAD30" stroke="black" stroke-width="0.08"/>
<path d="M53.6176 63.5826L53.5793 63.5711C53.5866 63.5468 53.5983 63.524 53.6181 63.507C53.6383 63.4897 53.663 63.4821 53.6895 63.4808C53.739 63.4783 53.8044 63.4976 53.8874 63.5293L53.8874 63.5293L53.8881 63.5295C53.9421 63.5511 54.0527 63.5708 54.1908 63.5848C54.3272 63.5986 54.4856 63.6065 54.6321 63.6065C54.8743 63.6065 55.0204 63.6122 55.132 63.6462C55.2468 63.6812 55.3226 63.7453 55.4272 63.8499C55.5596 63.9823 55.6921 64.0681 55.8342 64.1126C55.9763 64.1571 56.1312 64.1615 56.3099 64.1265L56.3102 64.1264C56.5518 64.0811 56.7627 63.9085 56.8971 63.6783C57.0314 63.4483 57.0866 63.1654 57.0216 62.9054L57.0213 62.904C57.0165 62.8817 57.0027 62.8477 56.9793 62.8039C56.9563 62.7608 56.9255 62.7107 56.8886 62.6566C56.8148 62.5484 56.7182 62.4262 56.6157 62.3158L56.6153 62.3153C56.403 62.0794 56.1884 61.9219 55.926 61.8227C55.6627 61.7233 55.3486 61.6815 54.9356 61.6815C54.705 61.6815 54.5614 61.6758 54.4482 61.643C54.3322 61.6094 54.2507 61.5483 54.1416 61.4472L54.1413 61.447C54.0049 61.3186 53.8263 61.1242 53.7517 61.0082L53.7515 61.0079C53.6808 60.8962 53.5436 60.7844 53.3861 60.7003C53.2287 60.6162 53.0576 60.5632 52.9226 60.5632C52.8809 60.5632 52.8098 60.5777 52.7286 60.6024C52.6485 60.6268 52.5627 60.66 52.4932 60.6948C52.4255 60.7286 52.3488 60.7841 52.2811 60.8479C52.2131 60.912 52.1571 60.9819 52.1281 61.0435L52.1282 61.0436L52.1266 61.0463C52.1257 61.0479 52.1231 61.0536 52.119 61.0658C52.1151 61.0771 52.1106 61.0921 52.1055 61.1107C52.0951 61.1479 52.0826 61.1981 52.0683 61.2598C52.0395 61.3831 52.0036 61.5508 51.9631 61.7488C51.882 62.1447 51.7827 62.6609 51.6859 63.1835C51.589 63.7061 51.4947 64.2348 51.4236 64.6558C51.3524 65.0778 51.3051 65.3878 51.3011 65.4771M53.6176 63.5826L53.5796 63.57C53.5766 63.5791 53.5715 63.6035 53.5651 63.6363C53.5584 63.671 53.5494 63.719 53.5385 63.7788C53.5168 63.8984 53.4873 64.0655 53.4524 64.2678C53.3824 64.6723 53.2906 65.2176 53.1947 65.8047C53.0469 66.6916 52.9492 67.2376 52.8667 67.5997C52.7842 67.9613 52.7174 68.1366 52.6325 68.2833C52.384 68.7026 51.9319 69.0009 51.3012 69.127L51.3003 69.1272L51.3003 69.1272C51.1057 69.1709 50.9759 69.19 50.8404 69.1842C50.7044 69.1784 50.5603 69.1475 50.3369 69.0877L50.3366 69.0876C49.6267 68.9023 49.1139 68.4971 48.8613 68.0076C48.6092 67.519 48.6145 66.9429 48.9466 66.4076C49.1026 66.158 49.3051 65.963 49.603 65.7984L49.6032 65.7982C49.7944 65.6907 49.9181 65.6312 50.0601 65.5976C50.2029 65.5638 50.3664 65.5557 50.638 65.5557C50.8103 65.5557 50.9669 65.5517 51.0809 65.5447C51.1376 65.5412 51.1848 65.5368 51.2182 65.5317C51.2346 65.5292 51.2494 65.5262 51.2609 65.5224C51.2664 65.5206 51.2736 65.5178 51.2802 65.5134C51.2851 65.5101 51.3005 65.4986 51.3011 65.4771M53.6176 63.5826C53.6415 63.5028 53.7055 63.5028 53.8732 63.5667L51.309 69.1663C51.9481 69.0385 52.4114 68.7349 52.667 68.3036C52.8427 68 52.9386 67.5846 53.2342 65.8113C53.4259 64.6371 53.6016 63.6306 53.6176 63.5826ZM51.3011 65.4771C51.3011 65.4767 51.3011 65.4762 51.3011 65.4758H51.2611M51.3011 65.4771C51.3011 65.4772 51.3011 65.4774 51.3011 65.4775L51.2611 65.4758M51.2611 65.4758C51.2771 65.1083 51.996 61.1942 52.0919 61.0265L50.3265 69.1263C48.8887 68.7509 48.2337 67.4808 48.9126 66.3864C49.0724 66.1308 49.2801 65.9311 49.5836 65.7634C49.9671 65.5477 50.0949 65.5157 50.638 65.5157C50.9815 65.5157 51.2611 65.4998 51.2611 65.4758ZM53.4498 61.5137C53.2262 61.2741 53.0025 61.0824 52.9626 61.0824C52.9146 61.0824 52.8028 61.1463 52.7069 61.2182C52.5632 61.338 52.4913 61.6895 52.1797 63.5986L53.4498 61.5137ZM53.4498 61.5137L53.479 61.4864C53.7832 61.8106 53.9681 61.9846 54.169 62.0807C54.3689 62.1764 54.5884 62.1967 54.968 62.2006H54.968M53.4498 61.5137L53.4791 61.4864C53.3664 61.3657 53.2536 61.257 53.1637 61.1781C53.1188 61.1387 53.079 61.1064 53.0475 61.0837C53.0318 61.0723 53.0175 61.0629 53.0051 61.056C52.9989 61.0526 52.9925 61.0495 52.9862 61.0472C52.9806 61.045 52.9721 61.0424 52.9626 61.0424C52.9432 61.0424 52.9217 61.0485 52.9017 61.0561C52.8807 61.0641 52.8576 61.0752 52.8336 61.0882C52.7857 61.1142 52.7321 61.1493 52.6829 61.1862L52.6813 61.1874L52.6813 61.1874C52.6385 61.2231 52.6039 61.2741 52.5706 61.3574C52.5375 61.4401 52.5047 61.5576 52.4672 61.7288C52.392 62.0716 52.296 62.638 52.1403 63.5922L52.1403 63.5922C52.0404 64.2071 51.9406 64.7879 51.8598 65.2269C51.8194 65.4464 51.7838 65.6303 51.7553 65.7651C51.7411 65.8325 51.7287 65.8874 51.7184 65.9282C51.7077 65.9707 51.7003 65.9938 51.6966 66.0011L51.6953 66.0038L51.6954 66.0038C51.6773 66.048 51.6636 66.0766 51.6482 66.0963C51.6344 66.1141 51.6189 66.1248 51.5946 66.131C51.5682 66.1378 51.5306 66.1395 51.4725 66.1352C51.4149 66.131 51.3409 66.1212 51.2429 66.1072C51.2429 66.1072 51.2428 66.1072 51.2428 66.1072L51.2372 66.1468C50.1668 65.987 49.4638 66.2826 49.2641 66.9935L54.968 62.2006M54.968 62.2006C55.3412 62.2047 55.6191 62.2427 55.8421 62.3387C56.0665 62.4353 56.2318 62.5891 56.3827 62.8174M54.968 62.2006L56.3827 62.8174M53.1463 62.8957L53.1846 62.9072C53.1794 62.9244 53.163 63.0076 53.1372 63.1481C53.1118 63.2869 53.0779 63.4782 53.0379 63.7083C52.9581 64.1685 52.8542 64.7834 52.7464 65.4423L52.7464 65.4424C52.539 66.6871 52.4247 67.3416 52.3048 67.7273C52.2446 67.9212 52.1822 68.0499 52.1041 68.1526C52.0263 68.2551 51.9345 68.3293 51.8204 68.4154L51.8204 68.4154L51.82 68.4157C51.7462 68.47 51.6372 68.5135 51.5118 68.5466C51.3857 68.5798 51.2398 68.6034 51.0897 68.616C50.7907 68.6412 50.469 68.6236 50.2499 68.5492L55.7104 63.359C55.4708 63.0874 55.4548 63.0794 54.8398 63.0794C54.3685 63.0794 54.1208 63.0394 53.8812 62.9196M53.1463 62.8957L53.1846 62.9073C53.1957 62.8707 53.2163 62.8453 53.2459 62.8287C53.2765 62.8115 53.3198 62.802 53.3777 62.8038C53.4941 62.8076 53.6577 62.8566 53.8636 62.9555C53.8637 62.9556 53.8638 62.9556 53.8639 62.9557L53.8812 62.9196M53.1463 62.8957C53.2022 62.7119 53.4658 62.7199 53.8812 62.9196M53.1463 62.8957C53.1223 62.9755 52.9226 64.1178 52.7069 65.4359L53.8812 62.9196M56.3827 62.8174C56.3826 62.8174 56.3826 62.8173 56.3825 62.8172L56.3495 62.8397L56.3829 62.8177C56.3828 62.8176 56.3827 62.8175 56.3827 62.8174Z" fill="#DFAD30" stroke="black" stroke-width="0.08"/>
<path d="M83.8211 65.2442C83.3897 65.3481 83.0702 65.5557 82.6389 66.035L82.2794 66.4344H81.5525C80.8495 66.4344 80.8096 66.4424 80.546 66.6821C80.2504 66.9377 80.1226 67.3131 80.2105 67.6646C80.2345 67.7684 80.8495 68.6311 81.5764 69.5817C82.3034 70.5243 82.8945 71.3231 82.8945 71.355C82.8945 71.387 82.7267 71.5867 82.527 71.8024C82.0797 72.2817 81.9199 72.6491 81.9119 73.2242C81.904 74.2467 82.6149 74.9017 83.7093 74.9017C84.3243 74.9017 84.7477 74.718 85.2509 74.2547C85.7222 73.8233 85.9379 73.4 85.9858 72.8248C86.0497 72.1778 85.906 71.9302 84.3882 69.9492L83.0702 68.2317L83.3258 68.0959C83.4616 68.024 83.7332 67.8004 83.9329 67.6007C84.2125 67.3051 84.3403 67.2332 84.556 67.2332C85.3228 67.2332 85.7941 66.3865 85.3947 65.7075C85.1631 65.3161 84.4442 65.1004 83.8211 65.2442ZM84.7956 65.9232C85.195 66.2028 84.8915 66.722 84.3882 66.6341C84.1166 66.5782 84.0767 66.6022 83.5974 67.0894C83.2459 67.4489 82.9744 67.6406 82.7347 67.7285C82.1196 67.9282 82.1516 67.9921 83.853 70.2207C84.8276 71.4988 85.3867 72.2976 85.4187 72.4654C85.4986 72.8967 85.3148 73.368 84.9075 73.7754C83.9409 74.734 82.4951 74.4145 82.4951 73.2402C82.4951 72.6811 82.8465 72.1459 83.4776 71.7624C83.5974 71.6826 83.6933 71.5707 83.6933 71.4988C83.6933 71.4349 83.0542 70.5403 82.2714 69.5258C81.4886 68.5033 80.8256 67.6007 80.7936 67.5208C80.7537 67.4329 80.7856 67.2971 80.8495 67.1933C80.9614 67.0255 81.0333 67.0096 81.6324 67.0176C82.3992 67.0255 82.6708 66.9137 83.0462 66.4584C83.5495 65.8513 84.3483 65.6037 84.7956 65.9232Z" fill="#DFAD30"/>
<path d="M53.7316 70.6847C53.7204 70.6491 53.7002 70.6164 53.6698 70.5841C53.5895 70.5039 53.5421 70.4761 53.5021 70.4754C53.4623 70.4747 53.4153 70.5006 53.335 70.5768C53.3041 70.608 53.2646 70.6706 53.2252 70.7515C53.1862 70.8315 53.149 70.9253 53.1217 71.0152L53.1217 71.0152C53.0997 71.087 53.0842 71.1423 53.0752 71.1868C53.066 71.2314 53.064 71.2623 53.0671 71.2858C53.0727 71.3278 53.0956 71.3551 53.1624 71.4022L53.1624 71.4022L53.1627 71.4024C53.2625 71.4743 53.318 71.4891 53.3635 71.4715C53.3879 71.462 53.4149 71.4413 53.4465 71.4028C53.4781 71.3643 53.5121 71.3109 53.5517 71.2397L53.5517 71.2397L53.5521 71.239C53.6636 71.0478 53.7221 70.9135 53.7378 70.8117C53.7456 70.7616 53.7428 70.7205 53.7316 70.6847Z" fill="#DFAD30" stroke="black" stroke-width="0.08"/>
<path d="M52.5389 79.3499L52.5389 79.3499L52.5389 79.3496C52.3704 78.3305 52.3705 76.4971 52.5388 75.3432L52.5388 75.3431C52.6109 74.8622 52.795 73.9822 52.9389 73.3984L52.939 73.398C53.0147 73.1032 53.0764 72.8224 53.1172 72.6086C53.1376 72.5017 53.1527 72.4118 53.1617 72.3455C53.1662 72.3123 53.169 72.2855 53.1704 72.2657C53.171 72.2557 53.1712 72.2481 53.1711 72.2425C53.1711 72.24 53.171 72.2384 53.1709 72.2373C53.1428 72.1732 53.098 72.134 53.046 72.1182C52.9927 72.102 52.9261 72.109 52.8536 72.1487C52.8372 72.1583 52.8133 72.1843 52.7839 72.2339C52.7551 72.2823 52.724 72.348 52.691 72.43C52.625 72.5938 52.5534 72.8185 52.4802 73.0898C52.3339 73.6323 52.1824 74.3578 52.0587 75.1475C51.8117 76.7333 51.8279 78.4616 52.1062 79.766C52.1538 79.988 52.2215 80.1308 52.2983 80.1988C52.3355 80.2316 52.3737 80.2462 52.4135 80.2455C52.4541 80.2448 52.5012 80.2282 52.5546 80.1895C52.5857 80.1662 52.6035 80.1496 52.6151 80.1283C52.6266 80.107 52.6342 80.0766 52.6342 80.022C52.6342 79.9106 52.6032 79.7192 52.5389 79.3499Z" fill="#DFAD30" stroke="black" stroke-width="0.08"/>
<path d="M48.7505 82.2887L48.7505 82.2887L48.7503 82.2892C48.6814 82.4654 48.6553 82.7246 48.6682 82.9846C48.681 83.2442 48.7323 83.4976 48.8127 83.6626C49.5619 85.1132 51.6441 84.7948 51.9408 83.178L51.9409 83.1779C52.1745 81.9241 50.8016 80.8627 49.6406 81.4002C49.4581 81.4857 49.2641 81.6303 49.1008 81.7937C48.9371 81.9574 48.8076 82.1364 48.7505 82.2887ZM50.8642 83.9317L50.8641 83.9318C50.0725 84.3358 49.1444 83.8003 49.1444 82.9216C49.1444 82.02 50.1855 81.4484 50.9317 81.9376C51.6505 82.4085 51.6202 83.5413 50.8642 83.9317Z" fill="#DFAD30" stroke="black" stroke-width="0.08"/>
<path d="M87.2633 84.7909C86.8399 84.9107 86.3446 85.2143 85.9932 85.5817C85.6976 85.8933 85.2902 86.6122 85.2902 86.8279C85.2902 86.8918 85.2263 87.0276 85.1464 87.1234L87.2633 84.7909ZM87.2633 84.7909C87.6467 84.6871 87.7665 84.5912 87.7665 84.3755C87.7665 84.1678 87.6227 84.0081 87.447 84.0081C87.3751 84.0081 87.0955 83.8962 86.8239 83.7604M87.2633 84.7909L85.41 82.2747M86.8239 83.7604C86.2248 83.4649 85.5938 82.8019 85.41 82.2747M86.8239 83.7604L86.8062 83.7963C86.8062 83.7963 86.8062 83.7963 86.8061 83.7963M86.8239 83.7604L86.806 83.7962C86.8061 83.7962 86.8061 83.7963 86.8061 83.7963M85.41 82.2747C85.2023 81.6596 85.0985 81.4918 84.9148 81.4679L85.41 82.2747ZM86.8061 83.7963C86.9428 83.8646 87.0816 83.927 87.1955 83.9723C87.2525 83.995 87.3037 84.0137 87.3456 84.0267C87.3858 84.0392 87.4222 84.0481 87.447 84.0481C87.5959 84.0481 87.7265 84.1849 87.7265 84.3755C87.7265 84.4741 87.7 84.5395 87.6333 84.5942C87.5626 84.6522 87.4443 84.7004 87.2528 84.7523L87.2524 84.7524C86.8214 84.8744 86.3201 85.182 85.9643 85.5541L85.9641 85.5542C85.8132 85.7133 85.6356 85.9741 85.496 86.2211C85.4261 86.3448 85.3652 86.4661 85.3216 86.5706C85.2788 86.6731 85.2502 86.7651 85.2502 86.8279C85.2502 86.8503 85.2378 86.8933 85.2122 86.9463C85.1875 86.9976 85.1533 87.0527 85.1157 87.0978L85.1148 87.0988L85.1149 87.0989C85.061 87.1681 85.017 87.203 84.9718 87.2183C84.9266 87.2337 84.8737 87.2317 84.7967 87.2124L84.7962 87.2123L84.7962 87.2123C84.7194 87.194 84.6712 87.1665 84.6292 87.1057C84.5846 87.0411 84.546 86.9374 84.498 86.7614L84.4979 86.7608L84.4979 86.7608C84.2304 85.8366 83.4772 85.0844 82.5313 84.761L82.5308 84.7609L82.5308 84.7609C82.3435 84.6998 82.2062 84.6302 82.1164 84.5587C82.0263 84.4868 81.9892 84.4172 81.9892 84.3556C81.9892 84.2942 82.026 84.2268 82.1156 84.1591C82.205 84.0915 82.3421 84.0279 82.5293 83.9747L82.5297 83.9746C83.0237 83.8288 83.4934 83.5374 83.8342 83.1482M86.8061 83.7963L83.8342 83.1482M86.8061 83.7963C86.5015 83.646 86.1903 83.4032 85.9322 83.132C85.6744 82.8611 85.4667 82.5588 85.3723 82.2878L85.3721 82.2875C85.2682 81.9796 85.1915 81.788 85.1193 81.6706C85.0835 81.6123 85.05 81.5744 85.0167 81.5497C84.9839 81.5255 84.9495 81.5128 84.9096 81.5075L84.9096 81.5076L84.9076 81.5072C84.8729 81.5009 84.8244 81.507 84.7743 81.5246C84.7245 81.5421 84.6782 81.5693 84.6475 81.6C84.6154 81.6322 84.5858 81.6761 84.5644 81.7208C84.5427 81.7662 84.5314 81.8079 84.5314 81.8353C84.5314 81.903 84.5056 81.9982 84.4653 82.1044C84.4245 82.2119 84.367 82.3353 84.3001 82.4612C84.1665 82.7123 83.9931 82.9769 83.8342 83.1482M86.8061 83.7963L83.8342 83.1482M85.1171 82.9017L85.1171 82.9016C85.0609 82.8053 85.0067 82.7169 84.9654 82.6525C84.9448 82.6203 84.9273 82.5939 84.9142 82.5752C84.9077 82.566 84.902 82.5582 84.8973 82.5524C84.8951 82.5496 84.8924 82.5464 84.8896 82.5437C84.8883 82.5424 84.886 82.5402 84.883 82.5381L84.8829 82.538C84.8814 82.5369 84.8722 82.5302 84.8589 82.5302H84.8341L84.8231 82.5523L84.8589 82.5702L84.8231 82.5523L84.8231 82.5524L84.8231 82.5524L84.823 82.5524L84.8229 82.5527L84.8224 82.5537L84.8205 82.5575L84.8133 82.5721C84.8072 82.5847 84.7984 82.6028 84.7878 82.6249C84.7667 82.669 84.7386 82.7293 84.7105 82.7936C84.6335 82.9627 84.4221 83.232 84.1768 83.4903C83.9319 83.7481 83.6595 83.9884 83.4648 84.1013L83.4648 84.1013C83.3685 84.1575 83.28 84.2118 83.2153 84.2542C83.1831 84.2754 83.1562 84.294 83.1371 84.3085C83.1277 84.3157 83.1193 84.3226 83.1129 84.3288C83.1098 84.3318 83.1061 84.3356 83.103 84.3399L83.1029 84.3401C83.101 84.3426 83.0934 84.353 83.0934 84.3675C83.0934 84.3819 83.1008 84.3921 83.1027 84.3948L83.1027 84.3948C83.1059 84.3992 83.1095 84.403 83.1126 84.4059C83.1188 84.412 83.127 84.4186 83.1361 84.4254C83.1545 84.4393 83.1804 84.4569 83.2116 84.477C83.2742 84.5174 83.3605 84.5696 83.4565 84.6256C83.8741 84.8778 84.3961 85.4078 84.6401 85.8487L84.6402 85.8488L84.8319 86.1923L84.8659 86.2531L84.9013 86.1932L85.1088 85.8419C85.1089 85.8419 85.1089 85.8419 85.1089 85.8418C85.3693 85.408 85.8837 84.8857 86.3249 84.6257C86.3249 84.6257 86.325 84.6257 86.325 84.6257L86.3047 84.5912C86.4964 84.4794 86.6482 84.3755 86.6482 84.3596C86.6482 84.3436 86.5124 84.2557 86.3366 84.1758L85.1171 82.9017ZM85.1171 82.9017C85.2466 83.1253 85.4598 83.3862 85.6899 83.6163C85.9201 83.8465 86.1639 84.0426 86.3541 84.1398L85.1171 82.9017Z" fill="#DFAD30" stroke="black" stroke-width="0.08"/>
<defs>
<filter id="filter0_f_876_39248" x="30.6" y="34.0999" width="71.8" height="72.8" filterUnits="userSpaceOnUse" color-interpolation-filters="sRGB">
<feFlood flood-opacity="0" result="BackgroundImageFix"/>
<feBlend mode="normal" in="SourceGraphic" in2="BackgroundImageFix" result="shape"/>
<feGaussianBlur stdDeviation="1.95" result="effect1_foregroundBlur_876_39248"/>
</filter>
<radialGradient id="paint0_radial_876_39248" cx="0" cy="0" r="1" gradientUnits="userSpaceOnUse" gradientTransform="translate(89.4433 108.96) scale(13.4976 9.27319)">
<stop stop-color="#DBAE3D"/>
<stop offset="1" stop-color="#755D21"/>
</radialGradient>
<radialGradient id="paint1_radial_876_39248" cx="0" cy="0" r="1" gradientUnits="userSpaceOnUse" gradientTransform="translate(108.684 56.0398) rotate(-74.5846) scale(13.4976 9.27319)">
<stop stop-color="#DBAE3D"/>
<stop offset="1" stop-color="#755D21"/>
</radialGradient>
<radialGradient id="paint2_radial_876_39248" cx="0" cy="0" r="1" gradientUnits="userSpaceOnUse" gradientTransform="translate(61.3938 114.837) rotate(154.981) scale(13.4976 9.27319)">
<stop stop-color="#DBAE3D"/>
<stop offset="1" stop-color="#755D21"/>
</radialGradient>
<radialGradient id="paint3_radial_876_39248" cx="0" cy="0" r="1" gradientUnits="userSpaceOnUse" gradientTransform="translate(106.894 84.6426) rotate(80.3967) scale(13.4976 9.27319)">
<stop stop-color="#DBAE3D"/>
<stop offset="1" stop-color="#755D21"/>
</radialGradient>
<radialGradient id="paint4_radial_876_39248" cx="0" cy="0" r="1" gradientUnits="userSpaceOnUse" gradientTransform="translate(66.5526 25.6841) rotate(-147.564) scale(13.4976 9.27319)">
<stop stop-color="#DBAE3D"/>
<stop offset="1" stop-color="#755D21"/>
</radialGradient>
<radialGradient id="paint5_radial_876_39248" cx="0" cy="0" r="1" gradientUnits="userSpaceOnUse" gradientTransform="translate(22.9636 81.6845) rotate(35.7217) scale(13.693 9.42668)">
<stop stop-color="#DBAE3D"/>
<stop offset="1" stop-color="#755D21"/>
</radialGradient>
<radialGradient id="paint6_radial_876_39248" cx="0" cy="0" r="1" gradientUnits="userSpaceOnUse" gradientTransform="translate(38.3889 105.116) rotate(-103.831) scale(14.0758 9.42668)">
<stop stop-color="#DBAE3D"/>
<stop offset="1" stop-color="#755D21"/>
</radialGradient>
<radialGradient id="paint7_radial_876_39248" cx="0" cy="0" r="1" gradientUnits="userSpaceOnUse" gradientTransform="translate(93.0558 33.7899) rotate(174.579) scale(13.7845 9.42668)">
<stop stop-color="#DBAE3D"/>
<stop offset="1" stop-color="#755D21"/>
</radialGradient>
<radialGradient id="paint8_radial_876_39248" cx="0" cy="0" r="1" gradientUnits="userSpaceOnUse" gradientTransform="translate(24.283 55.5405) rotate(-29.0047) scale(13.693 9.42668)">
<stop stop-color="#DBAE3D"/>
<stop offset="1" stop-color="#755D21"/>
</radialGradient>
<radialGradient id="paint9_radial_876_39248" cx="0" cy="0" r="1" gradientUnits="userSpaceOnUse" gradientTransform="translate(41.6921 33.4002) rotate(107.975) scale(13.7635 9.42668)">
<stop stop-color="#DBAE3D"/>
<stop offset="1" stop-color="#755D21"/>
</radialGradient>
<linearGradient id="paint10_linear_876_39248" x1="83.8376" y1="104.907" x2="84.2867" y2="91.1997" gradientUnits="userSpaceOnUse">
<stop stop-color="#DBAE3D"/>
<stop offset="1" stop-color="#755D21"/>
</linearGradient>
<linearGradient id="paint11_linear_876_39248" x1="103.286" y1="60.3667" x2="90.1917" y2="56.2901" gradientUnits="userSpaceOnUse">
<stop stop-color="#DBAE3D"/>
<stop offset="1" stop-color="#755D21"/>
</linearGradient>
<linearGradient id="paint12_linear_876_39248" x1="85.368" y1="37.2916" x2="85.6642" y2="46.3314" gradientUnits="userSpaceOnUse">
<stop stop-color="#DBAE3D"/>
<stop offset="1" stop-color="#755D21"/>
</linearGradient>
<radialGradient id="paint13_radial_876_39248" cx="0" cy="0" r="1" gradientUnits="userSpaceOnUse" gradientTransform="translate(54.7204 97.5768) rotate(-17.3519) scale(14.3565 12.0935)">
<stop stop-color="#DBAE3D"/>
<stop offset="1" stop-color="#755D21"/>
</radialGradient>
<radialGradient id="paint14_radial_876_39248" cx="0" cy="0" r="1" gradientUnits="userSpaceOnUse" gradientTransform="translate(88.4805 86.4878) rotate(-91.9365) scale(14.3565 12.0935)">
<stop stop-color="#DBAE3D"/>
<stop offset="1" stop-color="#755D21"/>
</radialGradient>
<radialGradient id="paint15_radial_876_39248" cx="0" cy="0" r="1" gradientUnits="userSpaceOnUse" gradientTransform="translate(58.1205 42.5018) rotate(17.3519) scale(15.3853 10.5285)">
<stop stop-color="#DBAE3D"/>
<stop offset="1" stop-color="#755D21"/>
</radialGradient>
<radialGradient id="paint16_radial_876_39248" cx="0" cy="0" r="1" gradientUnits="userSpaceOnUse" gradientTransform="translate(36.7919 69.394) rotate(-56.2495) scale(15.8786 9.61858)">
<stop stop-color="#DBAE3D"/>
<stop offset="1" stop-color="#755D21"/>
</radialGradient>
<radialGradient id="paint17_radial_876_39248" cx="0" cy="0" r="1" gradientUnits="userSpaceOnUse" gradientTransform="translate(29.5797 41.6775) scale(16.8978 21.7405)">
<stop stop-color="#DBAE3D"/>
<stop offset="1" stop-color="#755D21"/>
</radialGradient>
<radialGradient id="paint18_radial_876_39248" cx="0" cy="0" r="1" gradientUnits="userSpaceOnUse" gradientTransform="translate(27.3128 95.6681) rotate(-67.8378) scale(15.8732 22.4862)">
<stop stop-color="#DBAE3D"/>
<stop offset="1" stop-color="#755D21"/>
</radialGradient>
<radialGradient id="paint19_radial_876_39248" cx="0" cy="0" r="1" gradientUnits="userSpaceOnUse" gradientTransform="translate(76.0488 115.863) rotate(-133.357) scale(14.4922 23.3021)">
<stop stop-color="#DBAE3D"/>
<stop offset="1" stop-color="#755D21"/>
</radialGradient>
<radialGradient id="paint20_radial_876_39248" cx="0" cy="0" r="1" gradientUnits="userSpaceOnUse" gradientTransform="translate(111.779 70.7876) rotate(152.058) scale(14.4922 23.3021)">
<stop stop-color="#DBAE3D"/>
<stop offset="1" stop-color="#755D21"/>
</radialGradient>
<radialGradient id="paint21_radial_876_39248" cx="0" cy="0" r="1" gradientUnits="userSpaceOnUse" gradientTransform="translate(81.1215 25.4755) rotate(133.357) scale(11.8682 24.5377)">
<stop stop-color="#DBAE3D"/>
<stop offset="1" stop-color="#755D21"/>
</radialGradient>
<radialGradient id="paint22_radial_876_39248" cx="0" cy="0" r="1" gradientUnits="userSpaceOnUse" gradientTransform="translate(66.5 70.4999) rotate(90) scale(32.5 32)">
<stop stop-color="#755D21"/>
<stop offset="0.979" stop-color="#382606"/>
</radialGradient>
</defs>
</svg>
